<?xml version="1.0" encoding="UTF-8" standalone="no"?>
<svg
   width="354"
   height="24"
   viewBox="0 0 354 24"
   fill="none"
   version="1.1"
   id="svg3"
   sodipodi:docname="0800 - 7777 - 589 (luz).svg"
   inkscape:version="1.2.2 (732a01da63, 2022-12-09)"
   xmlns:inkscape="http://www.inkscape.org/namespaces/inkscape"
   xmlns:sodipodi="http://sodipodi.sourceforge.net/DTD/sodipodi-0.dtd"
   xmlns="http://www.w3.org/2000/svg"
   xmlns:svg="http://www.w3.org/2000/svg">
  <defs
     id="defs7" />
  <sodipodi:namedview
     id="namedview5"
     pagecolor="#ffffff"
     bordercolor="#000000"
     borderopacity="0.25"
     inkscape:showpageshadow="2"
     inkscape:pageopacity="0.0"
     inkscape:pagecheckerboard="0"
     inkscape:deskcolor="#d1d1d1"
     showgrid="false"
     inkscape:zoom="3.4180791"
     inkscape:cx="177"
     inkscape:cy="11.995041"
     inkscape:window-width="1920"
     inkscape:window-height="1017"
     inkscape:window-x="-8"
     inkscape:window-y="-8"
     inkscape:window-maximized="1"
     inkscape:current-layer="svg3" />
  <path
     id="0800 - 7777 - 589 (luz)"
     d="M76.7635 19.28C75.5635 19.28 74.4969 18.9933 73.5635 18.42C72.6302 17.8467 71.8969 17.0133 71.3635 15.92C70.8435 14.8133 70.5835 13.5067 70.5835 12C70.5835 10.4933 70.8435 9.19333 71.3635 8.1C71.8969 6.99333 72.6302 6.15333 73.5635 5.58C74.4969 5.00667 75.5635 4.72 76.7635 4.72C77.9502 4.72 79.0102 5.00667 79.9435 5.58C80.8769 6.15333 81.6035 6.99333 82.1235 8.1C82.6569 9.19333 82.9235 10.4933 82.9235 12C82.9235 13.5067 82.6569 14.8133 82.1235 15.92C81.6035 17.0133 80.8769 17.8467 79.9435 18.42C79.0102 18.9933 77.9502 19.28 76.7635 19.28ZM76.7635 16.04C77.4302 16.04 77.9569 15.72 78.3435 15.08C78.7435 14.4267 78.9435 13.4 78.9435 12C78.9435 10.6 78.7435 9.58 78.3435 8.94C77.9569 8.28667 77.4302 7.96 76.7635 7.96C76.0835 7.96 75.5435 8.28667 75.1435 8.94C74.7569 9.58 74.5635 10.6 74.5635 12C74.5635 13.4 74.7569 14.4267 75.1435 15.08C75.5435 15.72 76.0835 16.04 76.7635 16.04ZM94.1549 11.62C94.7949 11.9933 95.2883 12.4533 95.6349 13C95.9816 13.5467 96.1549 14.1733 96.1549 14.88C96.1549 15.76 95.9016 16.5333 95.3949 17.2C94.8883 17.8667 94.1749 18.38 93.2549 18.74C92.3349 19.1 91.2749 19.28 90.0749 19.28C88.8749 19.28 87.8149 19.1 86.8949 18.74C85.9749 18.38 85.2616 17.8667 84.7549 17.2C84.2483 16.5333 83.9949 15.76 83.9949 14.88C83.9949 14.1733 84.1683 13.5467 84.5149 13C84.8616 12.4533 85.3549 11.9933 85.9949 11.62C85.5149 11.2867 85.1416 10.88 84.8749 10.4C84.6216 9.92 84.4949 9.38667 84.4949 8.8C84.4949 7.98667 84.7283 7.27333 85.1949 6.66C85.6616 6.03333 86.3149 5.55333 87.1549 5.22C88.0083 4.88667 88.9816 4.72 90.0749 4.72C91.1683 4.72 92.1349 4.88667 92.9749 5.22C93.8283 5.55333 94.4883 6.03333 94.9549 6.66C95.4216 7.27333 95.6549 7.98667 95.6549 8.8C95.6549 9.38667 95.5216 9.92 95.2549 10.4C95.0016 10.88 94.6349 11.2867 94.1549 11.62ZM90.0749 7.5C89.5816 7.5 89.1816 7.63333 88.8749 7.9C88.5683 8.15333 88.4149 8.51333 88.4149 8.98C88.4149 9.43333 88.5616 9.79333 88.8549 10.06C89.1616 10.3133 89.5683 10.44 90.0749 10.44C90.5816 10.44 90.9883 10.3133 91.2949 10.06C91.6016 9.79333 91.7549 9.43333 91.7549 8.98C91.7549 8.51333 91.6016 8.15333 91.2949 7.9C90.9883 7.63333 90.5816 7.5 90.0749 7.5ZM90.0749 16.5C90.7149 16.5 91.2216 16.3467 91.5949 16.04C91.9816 15.72 92.1749 15.2933 92.1749 14.76C92.1749 14.2267 91.9816 13.8067 91.5949 13.5C91.2216 13.18 90.7149 13.02 90.0749 13.02C89.4349 13.02 88.9216 13.18 88.5349 13.5C88.1616 13.8067 87.9749 14.2267 87.9749 14.76C87.9749 15.2933 88.1616 15.72 88.5349 16.04C88.9216 16.3467 89.4349 16.5 90.0749 16.5ZM103.434 19.28C102.234 19.28 101.167 18.9933 100.234 18.42C99.3005 17.8467 98.5672 17.0133 98.0338 15.92C97.5138 14.8133 97.2538 13.5067 97.2538 12C97.2538 10.4933 97.5138 9.19333 98.0338 8.1C98.5672 6.99333 99.3005 6.15333 100.234 5.58C101.167 5.00667 102.234 4.72 103.434 4.72C104.62 4.72 105.68 5.00667 106.614 5.58C107.547 6.15333 108.274 6.99333 108.794 8.1C109.327 9.19333 109.594 10.4933 109.594 12C109.594 13.5067 109.327 14.8133 108.794 15.92C108.274 17.0133 107.547 17.8467 106.614 18.42C105.68 18.9933 104.62 19.28 103.434 19.28ZM103.434 16.04C104.1 16.04 104.627 15.72 105.014 15.08C105.414 14.4267 105.614 13.4 105.614 12C105.614 10.6 105.414 9.58 105.014 8.94C104.627 8.28667 104.1 7.96 103.434 7.96C102.754 7.96 102.214 8.28667 101.814 8.94C101.427 9.58 101.234 10.6 101.234 12C101.234 13.4 101.427 14.4267 101.814 15.08C102.214 15.72 102.754 16.04 103.434 16.04ZM116.925 19.28C115.725 19.28 114.659 18.9933 113.725 18.42C112.792 17.8467 112.059 17.0133 111.525 15.92C111.005 14.8133 110.745 13.5067 110.745 12C110.745 10.4933 111.005 9.19333 111.525 8.1C112.059 6.99333 112.792 6.15333 113.725 5.58C114.659 5.00667 115.725 4.72 116.925 4.72C118.112 4.72 119.172 5.00667 120.105 5.58C121.039 6.15333 121.765 6.99333 122.285 8.1C122.819 9.19333 123.085 10.4933 123.085 12C123.085 13.5067 122.819 14.8133 122.285 15.92C121.765 17.0133 121.039 17.8467 120.105 18.42C119.172 18.9933 118.112 19.28 116.925 19.28ZM116.925 16.04C117.592 16.04 118.119 15.72 118.505 15.08C118.905 14.4267 119.105 13.4 119.105 12C119.105 10.6 118.905 9.58 118.505 8.94C118.119 8.28667 117.592 7.96 116.925 7.96C116.245 7.96 115.705 8.28667 115.305 8.94C114.919 9.58 114.725 10.6 114.725 12C114.725 13.4 114.919 14.4267 115.305 15.08C115.705 15.72 116.245 16.04 116.925 16.04ZM124.556 11.84H130.396V14.76H124.556V11.84ZM143.014 5V7.48L138.074 19H133.754L138.474 8.14H134.794V10.3H131.414V5H143.014ZM155.451 5V7.48L150.511 19H146.191L150.911 8.14H147.231V10.3H143.851V5H155.451ZM167.888 5V7.48L162.948 19H158.628L163.348 8.14H159.668V10.3H156.288V5H167.888ZM180.324 5V7.48L175.384 19H171.064L175.784 8.14H172.104V10.3H168.724V5H180.324ZM180.665 11.84H186.505V14.76H180.665V11.84ZM193.179 10.1C195.139 10.1 196.586 10.5 197.519 11.3C198.466 12.1 198.939 13.1667 198.939 14.5C198.939 15.3667 198.712 16.1667 198.259 16.9C197.819 17.62 197.139 18.2 196.219 18.64C195.312 19.0667 194.186 19.28 192.839 19.28C191.852 19.28 190.872 19.16 189.899 18.92C188.939 18.68 188.112 18.34 187.419 17.9L188.839 14.92C189.399 15.2933 190.012 15.58 190.679 15.78C191.359 15.98 192.039 16.08 192.719 16.08C193.399 16.08 193.939 15.9533 194.339 15.7C194.752 15.4333 194.959 15.0667 194.959 14.6C194.959 14.1333 194.759 13.78 194.359 13.54C193.959 13.3 193.252 13.18 192.239 13.18H188.439L189.139 5H198.059V8.06H192.419L192.239 10.1H193.179ZM209.967 11.62C210.607 11.9933 211.101 12.4533 211.447 13C211.794 13.5467 211.967 14.1733 211.967 14.88C211.967 15.76 211.714 16.5333 211.207 17.2C210.701 17.8667 209.987 18.38 209.067 18.74C208.147 19.1 207.087 19.28 205.887 19.28C204.687 19.28 203.627 19.1 202.707 18.74C201.787 18.38 201.074 17.8667 200.567 17.2C200.061 16.5333 199.807 15.76 199.807 14.88C199.807 14.1733 199.981 13.5467 200.327 13C200.674 12.4533 201.167 11.9933 201.807 11.62C201.327 11.2867 200.954 10.88 200.687 10.4C200.434 9.92 200.307 9.38667 200.307 8.8C200.307 7.98667 200.541 7.27333 201.007 6.66C201.474 6.03333 202.127 5.55333 202.967 5.22C203.821 4.88667 204.794 4.72 205.887 4.72C206.981 4.72 207.947 4.88667 208.787 5.22C209.641 5.55333 210.301 6.03333 210.767 6.66C211.234 7.27333 211.467 7.98667 211.467 8.8C211.467 9.38667 211.334 9.92 211.067 10.4C210.814 10.88 210.447 11.2867 209.967 11.62ZM205.887 7.5C205.394 7.5 204.994 7.63333 204.687 7.9C204.381 8.15333 204.227 8.51333 204.227 8.98C204.227 9.43333 204.374 9.79333 204.667 10.06C204.974 10.3133 205.381 10.44 205.887 10.44C206.394 10.44 206.801 10.3133 207.107 10.06C207.414 9.79333 207.567 9.43333 207.567 8.98C207.567 8.51333 207.414 8.15333 207.107 7.9C206.801 7.63333 206.394 7.5 205.887 7.5ZM205.887 16.5C206.527 16.5 207.034 16.3467 207.407 16.04C207.794 15.72 207.987 15.2933 207.987 14.76C207.987 14.2267 207.794 13.8067 207.407 13.5C207.034 13.18 206.527 13.02 205.887 13.02C205.247 13.02 204.734 13.18 204.347 13.5C203.974 13.8067 203.787 14.2267 203.787 14.76C203.787 15.2933 203.974 15.72 204.347 16.04C204.734 16.3467 205.247 16.5 205.887 16.5ZM218.186 4.72C220.2 4.72 221.786 5.31333 222.946 6.5C224.106 7.68667 224.686 9.39333 224.686 11.62C224.686 13.22 224.373 14.6 223.746 15.76C223.133 16.9067 222.26 17.78 221.126 18.38C220.006 18.98 218.706 19.28 217.226 19.28C216.44 19.28 215.686 19.1867 214.966 19C214.246 18.8267 213.633 18.58 213.126 18.26L214.566 15.42C215.246 15.9 216.106 16.14 217.146 16.14C218.146 16.14 218.953 15.8667 219.566 15.32C220.193 14.76 220.56 13.9533 220.666 12.9C219.866 13.58 218.82 13.92 217.526 13.92C216.646 13.92 215.84 13.74 215.106 13.38C214.373 13.0067 213.786 12.4867 213.346 11.82C212.92 11.14 212.706 10.3667 212.706 9.5C212.706 8.55333 212.946 7.72 213.426 7C213.92 6.26667 214.58 5.70667 215.406 5.32C216.246 4.92 217.173 4.72 218.186 4.72ZM218.466 11.08C219.04 11.08 219.506 10.92 219.866 10.6C220.226 10.2667 220.406 9.83333 220.406 9.3C220.406 8.78 220.226 8.36 219.866 8.04C219.52 7.70667 219.046 7.54 218.446 7.54C217.886 7.54 217.426 7.7 217.066 8.02C216.72 8.34 216.546 8.77333 216.546 9.32C216.546 9.85333 216.72 10.28 217.066 10.6C217.426 10.92 217.893 11.08 218.466 11.08ZM235.075 22.88C233.555 20.46 232.695 17.2 232.695 13.52C232.695 9.84 233.555 6.54 235.075 4.16H236.895C235.275 7 234.575 10.02 234.575 13.52C234.575 17.02 235.275 20.04 236.895 22.88H235.075ZM239.433 19V5H241.433V17.26H249.013V19H239.433ZM256.674 19.16C252.994 19.16 250.754 17.02 250.754 12.96V5H252.754V12.88C252.754 15.98 254.174 17.38 256.694 17.38C259.214 17.38 260.654 15.98 260.654 12.88V5H262.594V12.96C262.594 17.02 260.374 19.16 256.674 19.16ZM267.934 17.26H276.954V19H265.254V17.64L274.054 6.74H265.394V5H276.694V6.36L267.934 17.26ZM279.799 22.88H277.979C279.599 20.04 280.319 17.02 280.319 13.52C280.319 10.02 279.599 7 277.979 4.16H279.799C281.339 6.54 282.199 9.84 282.199 13.52C282.199 17.2 281.339 20.46 279.799 22.88Z"
     fill="#00B2E7" />
</svg>
