<?xml version="1.0" encoding="UTF-8" standalone="no"?>
<svg
   width="650"
   height="130"
   viewBox="0 0 650 130"
   fill="none"
   version="1.1"
   id="svg8"
   sodipodi:docname="Group 6.svg"
   inkscape:version="1.2.2 (732a01da63, 2022-12-09)"
   xmlns:inkscape="http://www.inkscape.org/namespaces/inkscape"
   xmlns:sodipodi="http://sodipodi.sourceforge.net/DTD/sodipodi-0.dtd"
   xmlns="http://www.w3.org/2000/svg"
   xmlns:svg="http://www.w3.org/2000/svg">
  <defs
     id="defs12" />
  <sodipodi:namedview
     id="namedview10"
     pagecolor="#ffffff"
     bordercolor="#000000"
     borderopacity="0.25"
     inkscape:showpageshadow="2"
     inkscape:pageopacity="0.0"
     inkscape:pagecheckerboard="0"
     inkscape:deskcolor="#d1d1d1"
     showgrid="false"
     inkscape:zoom="1.8615385"
     inkscape:cx="325"
     inkscape:cy="65"
     inkscape:window-width="1920"
     inkscape:window-height="1017"
     inkscape:window-x="-8"
     inkscape:window-y="-8"
     inkscape:window-maximized="1"
     inkscape:current-layer="svg8" />
  <path
     d="M641.169 0H8.83152C3.95401 0 0 2.22149 0 4.96183V125.038C0 127.779 3.95401 130 8.83152 130H641.169C646.046 130 650 127.779 650 125.038V4.96183C650 2.22149 646.046 0 641.169 0Z"
     fill="white"
     id="path2" />
  <path
     d="M 409.46458,24.587107 H 240.53673 c -6.57045,0 -11.89673,6.078732 -11.89673,13.577124 v 20.365752 c 0,7.498392 5.32628,13.577124 11.89673,13.577124 h 168.92785 c 6.57045,0 11.89541,-6.078732 11.89541,-13.577124 V 38.164231 c 0,-7.498392 -5.32496,-13.577124 -11.89541,-13.577124 z"
     fill="#1db7e9"
     id="path4"
     style="stroke-width:1.31968"
     inkscape:transform-center-x="-2.6859504"
     inkscape:transform-center-y="47.809918" />
  <path
     d="m 246.52138,54.933247 h -2.48964 l -1.93156,-3.425268 h -0.11478 -2.01731 v 3.425268 h -2.31681 v -12.2958 h 4.33412 c 2.67568,0 4.34995,1.703856 4.34995,4.4616 0,1.844436 -0.75863,3.196908 -2.06085,3.881988 z m -2.53318,-7.8342 c 0,-1.352472 -0.7151,-2.142888 -2.13078,-2.142888 h -1.88933 v 4.285908 h 1.88933 c 1.41568,0 2.13078,-0.807972 2.13078,-2.14302 z m 11.56557,3.14424 c 0,0.210804 -0.0277,0.509388 -0.0422,0.737748 h -5.82236 c 0.21373,1.176912 1.0291,1.897104 2.20202,1.897104 0.81669,0 1.40249,-0.298584 1.93155,-0.91344 l 1.18743,1.580964 c -0.71509,1.00122 -1.78774,1.528164 -3.17571,1.528164 -2.66117,0 -4.39218,-2.05524 -4.39218,-4.865652 0,-2.8281 1.76004,-4.865652 4.10587,-4.865652 2.26008,0 4.0056,1.861992 4.0056,4.900764 z m -3.99108,-2.827968 c -1.01592,0 -1.74553,0.755304 -1.90253,1.967328 h 3.79054 c -0.157,-1.194468 -0.88661,-1.967328 -1.88801,-1.967328 z m 8.06661,7.658508 c -1.30222,0 -2.61763,-0.439164 -3.33404,-1.018776 l 0.74412,-1.967328 c 0.68739,0.5445 1.73101,0.913308 2.67568,0.913308 1.03042,0 1.41568,-0.333696 1.41568,-0.86064 0,-1.545852 -4.64945,0.03511 -4.64945,-3.741408 0,-1.791768 1.31673,-3.05646 3.56229,-3.05646 1.05945,0 2.23237,0.298716 2.96198,0.82566 l -0.74412,1.94964 c -0.75864,-0.526944 -1.51596,-0.702504 -2.21786,-0.702504 -1.0014,0 -1.43019,0.386364 -1.43019,0.878196 0,1.616076 4.64945,0.0528 4.64945,3.776652 0,1.756524 -1.32992,3.00366 -3.63354,3.00366 z m 9.3741,-2.529516 0.60032,1.932216 c -0.45782,0.404052 -1.12938,0.5973 -1.81677,0.5973 -1.81677,0 -2.8749,-1.141668 -2.8749,-3.390156 v -3.881988 h -1.18743 v -2.107908 h 1.18743 v -2.301024 h 2.23105 v 2.301024 h 1.91704 v 2.107908 h -1.91704 v 3.846876 c 0,0.807972 0.35755,1.247136 0.95918,1.247136 0.32852,0 0.65704,-0.123024 0.90112,-0.351384 z m 4.95819,-7.201788 c 2.34583,0 3.70478,1.334916 3.70478,4.198128 v 5.392596 h -2.08856 v -1.176912 c -0.41428,0.860772 -1.21513,1.317492 -2.34583,1.317492 -1.80226,0 -2.87622,-1.22958 -2.87622,-2.863212 0,-1.668612 0.95918,-2.827968 3.30501,-2.827968 h 1.77455 c 0,-1.176912 -0.5726,-1.861992 -1.77455,-1.861992 -0.81537,0 -1.65976,0.333828 -2.21654,0.878328 l -0.80217,-1.91466 c 0.84439,-0.737748 2.08856,-1.1418 3.31953,-1.1418 z m -0.17152,7.886868 c 0.74412,0 1.38797,-0.421476 1.64525,-1.282248 v -0.966108 h -1.53047 c -1.04493,0 -1.37346,0.474408 -1.37346,1.106688 0,0.68508 0.47102,1.141668 1.25868,1.141668 z m 10.44543,-7.886868 c 2.16113,0 3.83408,1.897104 3.83408,4.865652 0,2.968548 -1.67295,4.865652 -3.83408,4.865652 -1.03042,0 -1.85899,-0.404052 -2.41708,-1.22958 v 1.089 h -2.1321 V 41.899699 h 2.23237 v 4.584624 c 0.57129,-0.77286 1.35895,-1.1418 2.31681,-1.1418 z m -0.38657,7.482948 c 1.11618,0 1.96058,-0.983796 1.96058,-2.617296 0,-1.633632 -0.8444,-2.617296 -1.96058,-2.617296 -1.11487,0 -1.95926,0.983664 -1.95926,2.617296 0,1.6335 0.84439,2.617296 1.95926,2.617296 z m 5.71418,2.107776 V 41.899699 h 2.23237 v 13.033548 z m 11.84264,-4.68996 c 0,0.210804 -0.029,0.509388 -0.0435,0.737748 h -5.82237 c 0.21506,1.176912 1.03043,1.897104 2.20334,1.897104 0.81537,0 1.40249,-0.298584 1.93156,-0.91344 l 1.18743,1.580964 c -0.7151,1.00122 -1.78906,1.528164 -3.17572,1.528164 -2.66116,0 -4.39217,-2.05524 -4.39217,-4.865652 0,-2.8281 1.75871,-4.865652 4.10587,-4.865652 2.26008,0 4.0056,1.861992 4.0056,4.900764 z m -3.99109,-2.827968 c -1.01591,0 -1.74552,0.755304 -1.90384,1.967328 h 3.79186 c -0.15701,-1.194468 -0.88662,-1.967328 -1.88802,-1.967328 z m 9.19731,7.658508 c -2.50416,0 -4.2919,-2.020128 -4.2919,-4.865652 0,-2.845656 1.78774,-4.865652 4.2919,-4.865652 1.61623,0 2.88942,0.86064 3.44751,2.406492 l -1.73101,1.1418 c -0.41428,-0.895884 -1.03043,-1.299936 -1.73101,-1.299936 -1.1307,0 -2.01731,0.966108 -2.01731,2.617296 0,1.651188 0.88661,2.617296 2.01731,2.617296 0.70058,0 1.31673,-0.386496 1.73101,-1.299936 l 1.73101,1.159356 c -0.55809,1.510608 -1.83128,2.388936 -3.44751,2.388936 z m 12.17381,-4.83054 c 0,0.210804 -0.0277,0.509388 -0.0422,0.737748 h -5.82237 c 0.21374,1.176912 1.0291,1.897104 2.20334,1.897104 0.81537,0 1.40117,-0.298584 1.93024,-0.91344 l 1.18743,1.580964 c -0.7151,1.00122 -1.78775,1.528164 -3.17572,1.528164 -2.66117,0 -4.39218,-2.05524 -4.39218,-4.865652 0,-2.8281 1.76004,-4.865652 4.10588,-4.865652 2.26139,0 4.0056,1.861992 4.0056,4.900764 z m -3.99109,-2.827968 c -1.01591,0 -1.74552,0.755304 -1.90253,1.967328 h 3.79186 c -0.15832,-1.194468 -0.88793,-1.967328 -1.88933,-1.967328 z m 7.60879,-0.68508 c 0.54358,-0.91344 1.45922,-1.387716 2.64665,-1.387716 v 2.529516 c -0.18603,-0.01756 -0.32852,-0.03524 -0.50004,-0.03524 -1.23097,0 -2.04634,0.82566 -2.04634,2.634852 v 4.4616 h -2.23237 v -9.450144 h 2.1321 z m 11.80042,8.343588 c -2.50416,0 -4.2919,-2.020128 -4.2919,-4.865652 0,-2.845656 1.78774,-4.865652 4.2919,-4.865652 1.61623,0 2.88942,0.86064 3.44751,2.406492 l -1.73101,1.1418 c -0.41428,-0.895884 -1.03043,-1.299936 -1.73101,-1.299936 -1.1307,0 -2.01731,0.966108 -2.01731,2.617296 0,1.651188 0.88661,2.617296 2.01731,2.617296 0.70058,0 1.31673,-0.386496 1.73101,-1.299936 l 1.73101,1.159356 c -0.55809,1.510608 -1.83128,2.388936 -3.44751,2.388936 z m 8.2975,0 c -2.4461,0 -4.23516,-2.020128 -4.23516,-4.865652 0,-2.845656 1.78906,-4.865652 4.23516,-4.865652 2.44611,0 4.22066,2.019996 4.22066,4.865652 0,2.845524 -1.77455,4.865652 -4.22066,4.865652 z m 0,-2.248356 c 1.11619,0 1.95927,-0.983796 1.95927,-2.617296 0,-1.633632 -0.84308,-2.617296 -1.95927,-2.617296 -1.11618,0 -1.97377,0.983664 -1.97377,2.617296 0,1.6335 0.85759,2.617296 1.97377,2.617296 z m 10.39002,-7.482948 c 1.81677,0 3.19023,1.299936 3.19023,4.180572 v 5.410152 h -2.23237 v -4.988544 c 0,-1.528164 -0.57128,-2.2308 -1.55949,-2.2308 -1.07264,0 -1.84447,0.807972 -1.84447,2.54694 v 4.672404 h -2.23237 v -9.450144 h 2.13209 v 1.106556 c 0.60032,-0.807972 1.50144,-1.247136 2.54638,-1.247136 z m 9.57597,7.201788 0.60163,1.932216 c -0.45782,0.404052 -1.13069,0.5973 -1.81677,0.5973 -1.81676,0 -2.87622,-1.141668 -2.87622,-3.390156 v -3.881988 h -1.18743 v -2.107908 h 1.18743 v -2.301024 h 2.23237 v 2.301024 h 1.91704 v 2.107908 h -1.91704 v 3.846876 c 0,0.807972 0.35755,1.247136 0.95786,1.247136 0.32985,0 0.65837,-0.123024 0.90113,-0.351384 z m 3.98581,-5.814072 c 0.54358,-0.91344 1.45922,-1.387716 2.64665,-1.387716 v 2.529516 c -0.18603,-0.01756 -0.32852,-0.03524 -0.50004,-0.03524 -1.23097,0 -2.04634,0.82566 -2.04634,2.634852 v 4.4616 h -2.23105 v -9.450144 h 2.13078 z m 7.03619,-1.387716 c 2.34715,0 3.7061,1.334916 3.7061,4.198128 v 5.392596 h -2.08856 v -1.176912 c -0.4156,0.860772 -1.21646,1.317492 -2.34715,1.317492 -1.80226,0 -2.8749,-1.22958 -2.8749,-2.863212 0,-1.668612 0.95786,-2.827968 3.30501,-2.827968 h 1.77323 c 0,-1.176912 -0.57261,-1.861992 -1.77323,-1.861992 -0.81669,0 -1.65976,0.333828 -2.21786,0.878328 l -0.80085,-1.91466 c 0.84307,-0.737748 2.08856,-1.1418 3.31821,-1.1418 z m -0.17152,7.886868 c 0.74412,0 1.38797,-0.421476 1.64525,-1.282248 v -0.966108 h -1.53047 c -1.04493,0 -1.37346,0.474408 -1.37346,1.106688 0,0.68508 0.47234,1.141668 1.25868,1.141668 z m 8.48617,1.844436 c -1.30222,0 -2.61762,-0.439164 -3.33272,-1.018776 l 0.7428,-1.967328 c 0.68739,0.5445 1.73101,0.913308 2.67568,0.913308 1.03042,0 1.417,-0.333696 1.417,-0.86064 0,-1.545852 -4.65077,0.03511 -4.65077,-3.741408 0,-1.791768 1.31673,-3.05646 3.56229,-3.05646 1.05945,0 2.23237,0.298716 2.96198,0.82566 l -0.74412,1.94964 c -0.75864,-0.526944 -1.51596,-0.702504 -2.21786,-0.702504 -1.0014,0 -1.43019,0.386364 -1.43019,0.878196 0,1.616076 4.64945,0.0528 4.64945,3.776652 0,1.756524 -1.32992,3.00366 -3.63354,3.00366 z m 12.54982,-4.83054 c 0,0.210804 -0.0277,0.509388 -0.0422,0.737748 h -5.82368 c 0.21505,1.176912 1.03042,1.897104 2.20334,1.897104 0.81537,0 1.40249,-0.298584 1.93155,-0.91344 l 1.18743,1.580964 c -0.71509,1.00122 -1.78774,1.528164 -3.17571,1.528164 -2.66117,0 -4.39218,-2.05524 -4.39218,-4.865652 0,-2.8281 1.76004,-4.865652 4.10587,-4.865652 2.26008,0 4.0056,1.861992 4.0056,4.900764 z m -3.99108,-2.827968 c -1.01592,0 -1.74553,0.755304 -1.90253,1.967328 h 3.79054 c -0.157,-1.194468 -0.88661,-1.967328 -1.88801,-1.967328 z m 8.49672,-4.19826 c -0.38657,0 -0.65836,0.351384 -0.68739,0.983796 h -1.12938 c 0.029,-1.563408 0.67156,-2.564628 1.67428,-2.564628 0.98689,0 1.48693,1.124244 2.0028,1.124244 0.38526,0 0.65705,-0.36894 0.68607,-0.948552 h 1.1307 c -0.029,1.510608 -0.67288,2.511828 -1.67428,2.511828 -0.98688,0 -1.48824,-1.106688 -2.0028,-1.106688 z m 1.65977,2.125464 c 1.81677,0 3.19023,1.299936 3.19023,4.180572 v 5.410152 h -2.23237 v -4.988544 c 0,-1.528164 -0.57129,-2.2308 -1.55949,-2.2308 -1.07265,0 -1.84448,0.807972 -1.84448,2.54694 v 4.672404 h -2.23237 v -9.450144 h 2.1321 v 1.106556 c 0.60031,-0.807972 1.50144,-1.247136 2.54638,-1.247136 z m 8.31597,0 c 2.34715,0 3.7061,1.334916 3.7061,4.198128 v 5.392596 h -2.08856 v -1.176912 c -0.4156,0.860772 -1.21645,1.317492 -2.34715,1.317492 -1.80226,0 -2.8749,-1.22958 -2.8749,-2.863212 0,-1.668612 0.95786,-2.827968 3.30501,-2.827968 h 1.77323 c 0,-1.176912 -0.5726,-1.861992 -1.77323,-1.861992 -0.81669,0 -1.65976,0.333828 -2.21785,0.878328 l -0.80086,-1.91466 c 0.84308,-0.737748 2.08856,-1.1418 3.31821,-1.1418 z m -0.17152,7.886868 c 0.74412,0 1.38798,-0.421476 1.64525,-1.282248 v -0.966108 h -1.53046 c -1.04494,0 -1.37346,0.474408 -1.37346,1.106688 0,0.68508 0.47233,1.141668 1.25867,1.141668 z"
     fill="#ffffff"
     id="path6"
     style="stroke-width:1.31968"
     inkscape:transform-center-x="-2.7822654"
     inkscape:transform-center-y="47.817838" />
</svg>
