<svg width="95" height="8" viewBox="0 0 95 8" fill="none" xmlns="http://www.w3.org/2000/svg">
<path d="M0.265778 0.413085H3.11578C3.85578 0.413085 4.50911 0.563086 5.07578 0.863086C5.64245 1.15642 6.08245 1.56975 6.39578 2.10309C6.70911 2.62975 6.86578 3.23309 6.86578 3.91309C6.86578 4.59309 6.70911 5.19975 6.39578 5.73309C6.08245 6.25975 5.64245 6.67309 5.07578 6.97309C4.50911 7.26642 3.85578 7.41309 3.11578 7.41309H0.265778V0.413085ZM3.07578 6.77309C3.68911 6.77309 4.22578 6.65309 4.68578 6.41309C5.14578 6.16642 5.50245 5.82975 5.75578 5.40309C6.00911 4.96975 6.13578 4.47309 6.13578 3.91309C6.13578 3.35309 6.00911 2.85975 5.75578 2.43309C5.50245 1.99975 5.14578 1.66309 4.68578 1.42309C4.22578 1.17642 3.68911 1.05309 3.07578 1.05309H1.00578V6.77309H3.07578ZM13.3775 6.77309V7.41309H8.42749V0.413085H13.2275V1.05309H9.16749V3.54309H12.7875V4.17309H9.16749V6.77309H13.3775ZM16.947 7.47309C16.427 7.47309 15.927 7.38975 15.447 7.22309C14.9736 7.05642 14.607 6.83642 14.347 6.56309L14.637 5.99309C14.8903 6.24642 15.227 6.45309 15.647 6.61309C16.067 6.76642 16.5003 6.84309 16.947 6.84309C17.5736 6.84309 18.0436 6.72975 18.357 6.50309C18.6703 6.26975 18.827 5.96975 18.827 5.60309C18.827 5.32309 18.7403 5.09975 18.567 4.93309C18.4003 4.76642 18.1936 4.63975 17.947 4.55309C17.7003 4.45975 17.357 4.35975 16.917 4.25309C16.3903 4.11975 15.9703 3.99309 15.657 3.87309C15.3436 3.74642 15.0736 3.55642 14.847 3.30309C14.627 3.04975 14.517 2.70642 14.517 2.27309C14.517 1.91975 14.6103 1.59975 14.797 1.31309C14.9836 1.01975 15.2703 0.786419 15.657 0.613086C16.0436 0.439752 16.5236 0.353086 17.097 0.353086C17.497 0.353086 17.887 0.409752 18.267 0.523086C18.6536 0.629752 18.987 0.779752 19.267 0.973085L19.017 1.56309C18.7236 1.36975 18.4103 1.22642 18.077 1.13309C17.7436 1.03309 17.417 0.983086 17.097 0.983086C16.4836 0.983086 16.0203 1.10309 15.707 1.34309C15.4003 1.57642 15.247 1.87975 15.247 2.25309C15.247 2.53309 15.3303 2.75975 15.497 2.93309C15.6703 3.09975 15.8836 3.22975 16.137 3.32309C16.397 3.40975 16.7436 3.50642 17.177 3.61309C17.6903 3.73975 18.1036 3.86642 18.417 3.99309C18.737 4.11309 19.007 4.29975 19.227 4.55309C19.447 4.79975 19.557 5.13642 19.557 5.56309C19.557 5.91642 19.4603 6.23975 19.267 6.53309C19.0803 6.81975 18.7903 7.04975 18.397 7.22309C18.0036 7.38975 17.5203 7.47309 16.947 7.47309ZM24.1093 7.47309C23.416 7.47309 22.7893 7.31975 22.2293 7.01309C21.676 6.70642 21.2393 6.28309 20.9193 5.74309C20.606 5.19642 20.4493 4.58642 20.4493 3.91309C20.4493 3.23975 20.606 2.63309 20.9193 2.09309C21.2393 1.54642 21.6793 1.11975 22.2393 0.813086C22.7993 0.506419 23.426 0.353086 24.1193 0.353086C24.6393 0.353086 25.1193 0.439752 25.5593 0.613086C25.9993 0.786419 26.3726 1.03975 26.6793 1.37309L26.2093 1.84309C25.6626 1.28975 24.9726 1.01309 24.1393 1.01309C23.586 1.01309 23.0826 1.13975 22.6293 1.39309C22.176 1.64642 21.8193 1.99309 21.5593 2.43309C21.306 2.87309 21.1793 3.36642 21.1793 3.91309C21.1793 4.45975 21.306 4.95309 21.5593 5.39309C21.8193 5.83309 22.176 6.17975 22.6293 6.43309C23.0826 6.68642 23.586 6.81309 24.1393 6.81309C24.9793 6.81309 25.6693 6.53309 26.2093 5.97309L26.6793 6.44309C26.3726 6.77642 25.996 7.03309 25.5493 7.21309C25.1093 7.38642 24.6293 7.47309 24.1093 7.47309ZM32.371 5.54309H28.471L27.631 7.41309H26.861L30.061 0.413085H30.791L33.991 7.41309H33.211L32.371 5.54309ZM32.101 4.94309L30.421 1.18309L28.741 4.94309H32.101ZM39.829 7.41309L38.229 5.16309C38.049 5.18309 37.8623 5.19309 37.669 5.19309H35.789V7.41309H35.049V0.413085H37.669C38.5623 0.413085 39.2623 0.626419 39.769 1.05309C40.2756 1.47975 40.529 2.06642 40.529 2.81309C40.529 3.35975 40.389 3.82309 40.109 4.20309C39.8356 4.57642 39.4423 4.84642 38.929 5.01309L40.639 7.41309H39.829ZM37.649 4.56309C38.3423 4.56309 38.8723 4.40975 39.239 4.10309C39.6056 3.79642 39.789 3.36642 39.789 2.81309C39.789 2.24642 39.6056 1.81309 39.239 1.51309C38.8723 1.20642 38.3423 1.05309 37.649 1.05309H35.789V4.56309H37.649ZM47.1056 3.91309H47.8156V6.58309C47.4889 6.86975 47.1022 7.08975 46.6556 7.24309C46.2089 7.39642 45.7389 7.47309 45.2456 7.47309C44.5456 7.47309 43.9156 7.31975 43.3556 7.01309C42.7956 6.70642 42.3556 6.28309 42.0356 5.74309C41.7156 5.19642 41.5556 4.58642 41.5556 3.91309C41.5556 3.23975 41.7156 2.63309 42.0356 2.09309C42.3556 1.54642 42.7956 1.11975 43.3556 0.813086C43.9156 0.506419 44.5489 0.353086 45.2556 0.353086C45.7889 0.353086 46.2789 0.439752 46.7256 0.613086C47.1722 0.779752 47.5489 1.02975 47.8556 1.36309L47.3956 1.83309C46.8422 1.28642 46.1389 1.01309 45.2856 1.01309C44.7189 1.01309 44.2056 1.13975 43.7456 1.39309C43.2922 1.63975 42.9356 1.98642 42.6756 2.43309C42.4156 2.87309 42.2856 3.36642 42.2856 3.91309C42.2856 4.45975 42.4156 4.95309 42.6756 5.39309C42.9356 5.83309 43.2922 6.17975 43.7456 6.43309C44.1989 6.68642 44.7089 6.81309 45.2756 6.81309C45.9956 6.81309 46.6056 6.63309 47.1056 6.27309V3.91309ZM54.1999 5.54309H50.2999L49.4599 7.41309H48.6899L51.8899 0.413085H52.6199L55.8199 7.41309H55.0399L54.1999 5.54309ZM53.9299 4.94309L52.2499 1.18309L50.5699 4.94309H53.9299ZM59.3951 0.413085H60.1351V6.77309H64.0551V7.41309H59.3951V0.413085ZM69.5933 5.54309H65.6933L64.8533 7.41309H64.0833L67.2833 0.413085H68.0133L71.2133 7.41309H70.4333L69.5933 5.54309ZM69.3233 4.94309L67.6433 1.18309L65.9633 4.94309H69.3233ZM79.1784 5.54309H75.2784L74.4384 7.41309H73.6684L76.8684 0.413085H77.5984L80.7984 7.41309H80.0184L79.1784 5.54309ZM78.9084 4.94309L77.2284 1.18309L75.5484 4.94309H78.9084ZM84.4764 0.413085C85.3697 0.413085 86.0697 0.626419 86.5764 1.05309C87.0831 1.47975 87.3364 2.06642 87.3364 2.81309C87.3364 3.55975 87.0831 4.14642 86.5764 4.57309C86.0697 4.99309 85.3697 5.20309 84.4764 5.20309H82.5964V7.41309H81.8564V0.413085H84.4764ZM84.4564 4.55309C85.1497 4.55309 85.6797 4.40309 86.0464 4.10309C86.4131 3.79642 86.5964 3.36642 86.5964 2.81309C86.5964 2.24642 86.4131 1.81309 86.0464 1.51309C85.6797 1.20642 85.1497 1.05309 84.4564 1.05309H82.5964V4.55309H84.4564ZM91.4565 0.413085C92.3498 0.413085 93.0498 0.626419 93.5565 1.05309C94.0631 1.47975 94.3165 2.06642 94.3165 2.81309C94.3165 3.55975 94.0631 4.14642 93.5565 4.57309C93.0498 4.99309 92.3498 5.20309 91.4565 5.20309H89.5765V7.41309H88.8365V0.413085H91.4565ZM91.4365 4.55309C92.1298 4.55309 92.6598 4.40309 93.0265 4.10309C93.3931 3.79642 93.5765 3.36642 93.5765 2.81309C93.5765 2.24642 93.3931 1.81309 93.0265 1.51309C92.6598 1.20642 92.1298 1.05309 91.4365 1.05309H89.5765V4.55309H91.4365Z" fill="#A4A4A4"/>
</svg>
