<svg width="650" height="130" viewBox="0 0 650 130" fill="none" xmlns="http://www.w3.org/2000/svg">
<path d="M641.169 0H8.83152C3.95401 0 0 2.22149 0 4.96183V125.038C0 127.779 3.95401 130 8.83152 130H641.169C646.046 130 650 127.779 650 125.038V4.96183C650 2.22149 646.046 0 641.169 0Z" fill="white"/>
<path d="M390.519 27.5H262.482C257.502 27.5 253.465 32.1051 253.465 37.7857V53.2143C253.465 58.8949 257.502 63.5 262.482 63.5H390.519C395.499 63.5 399.535 58.8949 399.535 53.2143V37.7857C399.535 32.1051 395.499 27.5 390.519 27.5Z" fill="#1DB7E9"/>
<path d="M267.018 50.4895H265.131L263.667 47.8946H263.58H262.051V50.4895H260.295V41.1745H263.58C265.608 41.1745 266.877 42.4653 266.877 44.5545C266.877 45.9518 266.302 46.9764 265.315 47.4954L267.018 50.4895ZM265.098 44.5545C265.098 43.5299 264.556 42.9311 263.483 42.9311H262.051V46.178H263.483C264.556 46.178 265.098 45.5659 265.098 44.5545ZM273.864 46.9365C273.864 47.0962 273.843 47.3224 273.832 47.4954H269.419C269.581 48.387 270.199 48.9326 271.088 48.9326C271.707 48.9326 272.151 48.7064 272.552 48.2406L273.452 49.4383C272.91 50.1968 272.097 50.596 271.045 50.596C269.028 50.596 267.716 49.039 267.716 46.9099C267.716 44.7674 269.05 43.2238 270.828 43.2238C272.541 43.2238 273.864 44.6344 273.864 46.9365ZM270.839 44.7941C270.069 44.7941 269.516 45.3663 269.397 46.2845H272.27C272.151 45.3796 271.598 44.7941 270.839 44.7941ZM276.953 50.596C275.966 50.596 274.969 50.2633 274.426 49.8242L274.99 48.3338C275.511 48.7463 276.302 49.0257 277.018 49.0257C277.799 49.0257 278.091 48.7729 278.091 48.3737C278.091 47.2026 274.567 48.4003 274.567 45.5393C274.567 44.1819 275.565 43.2238 277.267 43.2238C278.07 43.2238 278.959 43.4501 279.512 43.8493L278.948 45.3263C278.373 44.9271 277.799 44.7941 277.267 44.7941C276.508 44.7941 276.183 45.0868 276.183 45.4594C276.183 46.6837 279.707 45.4994 279.707 48.3205C279.707 49.6512 278.699 50.596 276.953 50.596ZM284.058 48.6797L284.513 50.1435C284.166 50.4496 283.657 50.596 283.136 50.596C281.759 50.596 280.957 49.7311 280.957 48.0277V45.0868H280.057V43.4899H280.957V41.7467H282.648V43.4899H284.101V45.0868H282.648V48.0011C282.648 48.6132 282.919 48.9459 283.375 48.9459C283.624 48.9459 283.873 48.8527 284.058 48.6797ZM287.816 43.2238C289.594 43.2238 290.624 44.2351 290.624 46.4042V50.4895H289.041V49.5979C288.727 50.25 288.12 50.596 287.263 50.596C285.897 50.596 285.083 49.6645 285.083 48.4269C285.083 47.1628 285.81 46.2845 287.588 46.2845H288.933C288.933 45.3929 288.499 44.8739 287.588 44.8739C286.97 44.8739 286.33 45.1268 285.908 45.5393L285.3 44.0888C285.94 43.5299 286.883 43.2238 287.816 43.2238ZM287.686 49.1987C288.25 49.1987 288.738 48.8794 288.933 48.2273V47.4954H287.773C286.981 47.4954 286.732 47.8548 286.732 48.3338C286.732 48.8528 287.089 49.1987 287.686 49.1987ZM295.603 43.2238C297.241 43.2238 298.509 44.661 298.509 46.9099C298.509 49.1588 297.241 50.596 295.603 50.596C294.822 50.596 294.194 50.2899 293.771 49.6645V50.4895H292.155V40.6156H293.847V44.0888C294.28 43.5033 294.877 43.2238 295.603 43.2238ZM295.31 48.8927C296.156 48.8927 296.796 48.1474 296.796 46.9099C296.796 45.6723 296.156 44.9271 295.31 44.9271C294.465 44.9271 293.825 45.6723 293.825 46.9099C293.825 48.1474 294.465 48.8927 295.31 48.8927ZM299.641 50.4895V40.6156H301.333V50.4895H299.641ZM308.617 46.9365C308.617 47.0962 308.595 47.3224 308.584 47.4954H304.171C304.334 48.387 304.952 48.9326 305.841 48.9326C306.459 48.9326 306.904 48.7064 307.305 48.2406L308.205 49.4383C307.663 50.1968 306.849 50.596 305.798 50.596C303.781 50.596 302.469 49.039 302.469 46.9099C302.469 44.7674 303.802 43.2238 305.581 43.2238C307.294 43.2238 308.617 44.6344 308.617 46.9365ZM305.592 44.7941C304.822 44.7941 304.269 45.3663 304.149 46.2845H307.023C306.904 45.3796 306.351 44.7941 305.592 44.7941ZM312.563 50.596C310.665 50.596 309.31 49.0656 309.31 46.9099C309.31 44.7541 310.665 43.2238 312.563 43.2238C313.788 43.2238 314.753 43.8758 315.176 45.0469L313.864 45.9119C313.55 45.2332 313.083 44.9271 312.552 44.9271C311.695 44.9271 311.023 45.659 311.023 46.9099C311.023 48.1608 311.695 48.8927 312.552 48.8927C313.083 48.8927 313.55 48.5999 313.864 47.9079L315.176 48.7862C314.753 49.9306 313.788 50.596 312.563 50.596ZM321.79 46.9365C321.79 47.0962 321.769 47.3224 321.758 47.4954H317.345C317.507 48.387 318.125 48.9326 319.015 48.9326C319.633 48.9326 320.077 48.7064 320.478 48.2406L321.378 49.4383C320.836 50.1968 320.023 50.596 318.971 50.596C316.954 50.596 315.642 49.039 315.642 46.9099C315.642 44.7674 316.976 43.2238 318.754 43.2238C320.468 43.2238 321.79 44.6344 321.79 46.9365ZM318.765 44.7941C317.995 44.7941 317.442 45.3663 317.323 46.2845H320.197C320.077 45.3796 319.524 44.7941 318.765 44.7941ZM324.532 44.2751C324.944 43.5831 325.638 43.2238 326.538 43.2238V45.1401C326.397 45.1268 326.289 45.1134 326.159 45.1134C325.226 45.1134 324.608 45.7389 324.608 47.1095V50.4895H322.916V43.3303H324.532V44.2751ZM333.476 50.596C331.578 50.596 330.223 49.0656 330.223 46.9099C330.223 44.7541 331.578 43.2238 333.476 43.2238C334.701 43.2238 335.666 43.8758 336.089 45.0469L334.777 45.9119C334.463 45.2332 333.996 44.9271 333.465 44.9271C332.608 44.9271 331.936 45.659 331.936 46.9099C331.936 48.1608 332.608 48.8927 333.465 48.8927C333.996 48.8927 334.463 48.5999 334.777 47.9079L336.089 48.7862C335.666 49.9306 334.701 50.596 333.476 50.596ZM339.765 50.596C337.911 50.596 336.555 49.0656 336.555 46.9099C336.555 44.7541 337.911 43.2238 339.765 43.2238C341.619 43.2238 342.964 44.7541 342.964 46.9099C342.964 49.0656 341.619 50.596 339.765 50.596ZM339.765 48.8927C340.611 48.8927 341.25 48.1474 341.25 46.9099C341.25 45.6723 340.611 44.9271 339.765 44.9271C338.919 44.9271 338.269 45.6723 338.269 46.9099C338.269 48.1474 338.919 48.8927 339.765 48.8927ZM347.64 43.2238C349.017 43.2238 350.058 44.2086 350.058 46.3909V50.4895H348.366V46.7103C348.366 45.5526 347.933 45.0203 347.184 45.0203C346.371 45.0203 345.786 45.6324 345.786 46.9498V50.4895H344.094V43.3303H345.71V44.1686C346.165 43.5565 346.848 43.2238 347.64 43.2238ZM354.898 48.6797L355.354 50.1435C355.007 50.4496 354.497 50.596 353.977 50.596C352.6 50.596 351.797 49.7311 351.797 48.0277V45.0868H350.897V43.4899H351.797V41.7467H353.489V43.4899H354.942V45.0868H353.489V48.0011C353.489 48.6132 353.76 48.9459 354.215 48.9459C354.465 48.9459 354.714 48.8527 354.898 48.6797ZM357.919 44.2751C358.331 43.5831 359.025 43.2238 359.925 43.2238V45.1401C359.784 45.1268 359.676 45.1134 359.546 45.1134C358.613 45.1134 357.995 45.7389 357.995 47.1095V50.4895H356.304V43.3303H357.919V44.2751ZM363.252 43.2238C365.031 43.2238 366.061 44.2351 366.061 46.4042V50.4895H364.478V49.5979C364.163 50.25 363.556 50.596 362.699 50.596C361.333 50.596 360.52 49.6645 360.52 48.4269C360.52 47.1628 361.246 46.2845 363.025 46.2845H364.369C364.369 45.3929 363.935 44.8739 363.025 44.8739C362.406 44.8739 361.767 45.1268 361.344 45.5393L360.737 44.0888C361.376 43.5299 362.32 43.2238 363.252 43.2238ZM363.122 49.1987C363.686 49.1987 364.174 48.8794 364.369 48.2273V47.4954H363.209C362.417 47.4954 362.168 47.8548 362.168 48.3338C362.168 48.8528 362.526 49.1987 363.122 49.1987ZM369.554 50.596C368.567 50.596 367.57 50.2633 367.028 49.8242L367.591 48.3338C368.112 48.7463 368.903 49.0257 369.619 49.0257C370.4 49.0257 370.693 48.7729 370.693 48.3737C370.693 47.2026 367.168 48.4003 367.168 45.5393C367.168 44.1819 368.166 43.2238 369.868 43.2238C370.671 43.2238 371.56 43.4501 372.113 43.8493L371.549 45.3263C370.974 44.9271 370.4 44.7941 369.868 44.7941C369.109 44.7941 368.784 45.0868 368.784 45.4594C368.784 46.6837 372.308 45.4994 372.308 48.3205C372.308 49.6512 371.3 50.596 369.554 50.596ZM379.066 46.9365C379.066 47.0962 379.045 47.3224 379.034 47.4954H374.62C374.783 48.387 375.401 48.9326 376.29 48.9326C376.908 48.9326 377.353 48.7064 377.754 48.2406L378.654 49.4383C378.112 50.1968 377.299 50.596 376.247 50.596C374.23 50.596 372.918 49.039 372.918 46.9099C372.918 44.7674 374.252 43.2238 376.03 43.2238C377.743 43.2238 379.066 44.6344 379.066 46.9365ZM376.041 44.7941C375.271 44.7941 374.718 45.3663 374.599 46.2845H377.472C377.353 45.3796 376.8 44.7941 376.041 44.7941ZM382.481 41.6136C382.188 41.6136 381.982 41.8798 381.96 42.3589H381.104C381.126 41.1745 381.613 40.416 382.373 40.416C383.121 40.416 383.5 41.2677 383.891 41.2677C384.183 41.2677 384.389 40.9882 384.411 40.5491H385.268C385.246 41.6935 384.758 42.452 383.999 42.452C383.251 42.452 382.871 41.6136 382.481 41.6136ZM383.739 43.2238C385.116 43.2238 386.157 44.2086 386.157 46.3909V50.4895H384.465V46.7103C384.465 45.5526 384.032 45.0203 383.283 45.0203C382.47 45.0203 381.885 45.6324 381.885 46.9498V50.4895H380.193V43.3303H381.809V44.1686C382.264 43.5565 382.947 43.2238 383.739 43.2238ZM390.042 43.2238C391.821 43.2238 392.851 44.2351 392.851 46.4042V50.4895H391.268V49.5979C390.953 50.25 390.346 50.596 389.489 50.596C388.123 50.596 387.31 49.6645 387.31 48.4269C387.31 47.1628 388.036 46.2845 389.815 46.2845H391.159C391.159 45.3929 390.725 44.8739 389.815 44.8739C389.196 44.8739 388.557 45.1268 388.134 45.5393L387.527 44.0888C388.166 43.5299 389.11 43.2238 390.042 43.2238ZM389.912 49.1987C390.476 49.1987 390.964 48.8794 391.159 48.2273V47.4954H389.999C389.207 47.4954 388.958 47.8548 388.958 48.3338C388.958 48.8528 389.316 49.1987 389.912 49.1987Z" fill="white"/>
</svg>
