<svg width="24" height="25" viewBox="0 0 24 25" fill="none" xmlns="http://www.w3.org/2000/svg">
<path d="M6.84967 0.987793C3.08139 0.987793 0.0152588 4.05573 0.0152588 7.82495V17.59C0.0152588 21.3587 3.0832 24.4253 6.85242 24.4253H16.6174C20.3862 24.4253 23.4528 21.3574 23.4528 17.5881V7.8222C23.4528 4.05392 20.3848 0.987793 16.6156 0.987793H6.84967ZM18.7653 4.73779C19.2828 4.73779 19.7028 5.15779 19.7028 5.67529C19.7028 6.19279 19.2828 6.61279 18.7653 6.61279C18.2478 6.61279 17.8278 6.19279 17.8278 5.67529C17.8278 5.15779 18.2478 4.73779 18.7653 4.73779ZM11.734 6.61279C15.0949 6.61279 17.8278 9.34561 17.8278 12.7065C17.8278 16.0675 15.0945 18.8003 11.734 18.8003C8.37307 18.8003 5.64026 16.067 5.64026 12.7065C5.64026 9.34607 8.37307 6.61279 11.734 6.61279ZM11.734 8.48779C9.40385 8.48779 7.51526 10.3764 7.51526 12.7065C7.51526 15.0367 9.40385 16.9253 11.734 16.9253C14.0642 16.9253 15.9528 15.0367 15.9528 12.7065C15.9528 10.3764 14.0642 8.48779 11.734 8.48779Z" fill="#A4A4A4"/>
</svg>
