<svg width="294" height="49" viewBox="0 0 294 49" fill="none" xmlns="http://www.w3.org/2000/svg">
<path d="M53.8628 13.6307C42.654 12.614 38.0054 6.82926 37.7658 6.82425C36.0888 6.79921 31.7868 6.78418 31.379 6.76415C31.588 6.4336 34.9674 2.40685 36.5272 0.598814C37.2102 -0.192512 37.3325 -0.177487 38.1787 0.513672C43.3167 4.72072 48.4649 8.92277 53.608 13.1248C53.7201 13.215 53.8221 13.3101 53.9342 13.4053C53.9138 13.4804 53.8883 13.5555 53.8679 13.6307H53.8628Z" fill="#1960A7"/>
<path d="M37.9136 12.9996C41.4663 16.2701 45.9519 17.2367 50.361 18.3787C50.9676 18.5339 51.6047 18.6842 52.2215 18.8394C52.0737 19.5406 51.6812 19.796 50.9879 19.791C47.0223 19.766 43.0567 19.781 39.091 19.776C37.9493 19.776 37.8779 19.7009 37.8728 18.5239C37.8677 16.7559 37.8728 14.993 37.8728 13.225C37.8728 13.1799 37.8881 13.1349 37.9136 12.9946V12.9996Z" fill="#1960A7"/>
<path d="M53.3429 15.2234C49.1122 14.6574 41.8997 12.9496 37.8729 8.7826C42.4909 12.3486 48.103 13.806 53.5825 14.5122C53.5009 14.7776 53.3429 15.2234 53.3429 15.2234Z" fill="#1960A7"/>
<path d="M38.1173 10.6958C42.7966 13.6808 47.7154 15.1232 53.1235 15.9747C53.0318 16.2752 52.9553 16.5707 52.9553 16.5707C50.8094 16.2201 41.8791 14.382 38.1173 10.6958Z" fill="#1960A7"/>
<path d="M38.2807 12.2234C42.649 15.2334 47.4098 16.1449 52.665 17.4321C52.5733 17.7376 52.4459 18.0782 52.4459 18.0782C48.2101 17.1366 41.1045 15.1483 38.2807 12.2234Z" fill="#1960A7"/>
<path d="M0.51547 36.0883V33.7544H8.40597C9.51206 33.7544 10.0626 33.2185 10.0626 32.1467C10.0626 31.0749 9.51206 30.539 8.40597 30.539H4.18037C1.51962 30.539 0.189248 29.2319 0.189248 26.6175C0.189248 24.0031 1.51962 22.736 4.18037 22.736H12.4379V25.0699H4.73087C3.65026 25.0699 3.11505 25.5908 3.11505 26.6375C3.11505 27.6843 3.64516 28.2051 4.71048 28.2051H8.91569C10.2512 28.2051 11.2655 28.5357 11.9536 29.1918C12.6418 29.8479 12.9884 30.8345 12.9884 32.1467C12.9884 33.4589 12.6418 34.4456 11.9536 35.1017C11.2655 35.7578 10.2563 36.0883 8.93608 36.0883H0.51547Z" fill="#1960A7"/>
<path d="M20.6547 36.0883C18.3864 36.0883 16.7145 35.5474 15.639 34.4606C14.5584 33.3738 14.0232 31.691 14.0232 29.4122C14.0232 27.1333 14.5635 25.4655 15.639 24.3737C16.7145 23.2819 18.3915 22.736 20.6547 22.736H24.605V25.0699H21.2052C20.5221 25.0699 19.9309 25.125 19.4364 25.2402C18.9369 25.3554 18.524 25.5357 18.1978 25.7811C17.8716 26.0315 17.6116 26.352 17.4179 26.7477C17.2242 27.1434 17.0968 27.6292 17.0306 28.2051H24.4215V30.539H17.0306C17.1376 31.691 17.5199 32.5174 18.1672 33.0132C18.8146 33.509 19.8289 33.7594 21.2052 33.7594H24.8089V36.0934H20.6547V36.0883Z" fill="#1960A7"/>
<path d="M32.5668 36.0884C30.2985 36.0884 28.6266 35.5475 27.5511 34.4707C26.4705 33.3888 25.9353 31.706 25.9353 29.4122C25.9353 27.1183 26.4756 25.4656 27.5613 24.3737C28.647 23.2819 30.3087 22.736 32.5464 22.736H36.6395V25.0699H33.1377C32.3476 25.0699 31.6748 25.145 31.1294 25.3003C30.584 25.4556 30.1456 25.706 29.8092 26.0566C29.4728 26.4071 29.2332 26.8529 29.0803 27.4038C28.9325 27.9547 28.856 28.6259 28.856 29.4172C28.856 30.2085 28.9325 30.8796 29.0803 31.4306C29.2281 31.9815 29.4728 32.4322 29.8092 32.7778C30.1456 33.1284 30.584 33.3788 31.1294 33.5341C31.6748 33.6894 32.3425 33.7645 33.1377 33.7645H36.721V36.0984H32.5668V36.0884Z" fill="#1960A7"/>
<path d="M46.941 36.0883V30.4939H40.6357V36.0883H37.8526V22.7309H40.6357V28.1851H46.9206V22.7309H49.7241V36.0883H46.941Z" fill="#1960A7"/>
<path d="M57.4871 36.0884C55.2189 36.0884 53.547 35.5475 52.4715 34.4606C51.3909 33.3738 50.8557 31.691 50.8557 29.4122C50.8557 27.1334 51.396 25.4656 52.4715 24.3737C53.547 23.2819 55.224 22.736 57.4871 22.736H61.4375V25.0699H58.0376C57.3546 25.0699 56.7633 25.125 56.2689 25.2402C55.7694 25.3554 55.3565 25.5357 55.0303 25.7811C54.7041 26.0315 54.4441 26.3521 54.2504 26.7477C54.0567 27.1434 53.9293 27.6292 53.863 28.2052H61.254V30.5391H53.863C53.9701 31.691 54.3523 32.5174 54.9997 33.0132C55.647 33.5091 56.6614 33.7595 58.0376 33.7595H61.6414V36.0934H57.4871V36.0884Z" fill="#1960A7"/>
<path d="M69.3636 36.0883C67.0954 36.0883 65.4235 35.5474 64.348 34.4606C63.2673 33.3738 62.7321 31.691 62.7321 29.4122C62.7321 27.1333 63.2724 25.4655 64.348 24.3737C65.4235 23.2819 67.1004 22.736 69.3636 22.736H73.314V25.0699H69.9141C69.2311 25.0699 68.6398 25.125 68.1454 25.2402C67.6459 25.3554 67.233 25.5357 66.9068 25.7811C66.5805 26.0315 66.3206 26.352 66.1269 26.7477C65.9332 27.1434 65.8058 27.6292 65.7395 28.2051H73.1305V30.539H65.7395C65.8465 31.691 66.2288 32.5174 66.8762 33.0132C67.5235 33.509 68.5379 33.7594 69.9141 33.7594H73.5178V36.0934H69.3636V36.0883Z" fill="#1960A7"/>
<path d="M74.894 22.7309H82.1015C83.6052 22.7309 84.747 23.1066 85.5421 23.8578C86.3322 24.6091 86.7298 25.7209 86.7298 27.1984C86.7298 28.6759 86.3322 29.7878 85.5421 30.539C84.7521 31.2903 83.6052 31.6659 82.1015 31.6659H78.2531V36.0933H74.894V22.7309ZM81.4847 28.8862C82.6316 28.8862 83.2025 28.3253 83.2025 27.1984C83.2025 26.0715 82.6316 25.5106 81.4847 25.5106H78.248V28.8913H81.4847V28.8862Z" fill="#1960A7"/>
<path d="M5.29146 46.9665H0.0413208V39.8596H5.14874V40.7411H1.07606V42.9248H4.70528V43.7862H1.07606V46.08H5.29146V46.9665Z" fill="#1960A7"/>
<path d="M11.342 42.1285C11.7497 42.5241 11.9587 43.1051 11.9587 43.8714V46.9666H10.9648V43.9816C10.9648 43.4607 10.8373 43.065 10.5825 42.8046C10.3276 42.5391 9.96061 42.4089 9.48657 42.4089C8.95136 42.4089 8.52319 42.5642 8.21736 42.8697C7.90643 43.1802 7.75351 43.621 7.75351 44.1969V46.9716H6.75956V41.5876H7.71274V42.3989C7.91153 42.1235 8.18168 41.9081 8.52319 41.7578C8.86471 41.6076 9.2521 41.5325 9.68536 41.5325C10.3837 41.5325 10.9342 41.7328 11.342 42.1285Z" fill="#1960A7"/>
<path d="M14.2219 44.5976C14.283 45.0734 14.4971 45.4541 14.859 45.7396C15.2209 46.025 15.6695 46.1703 16.2098 46.1703C16.8622 46.1703 17.3924 45.9549 17.7899 45.5192L18.3353 46.1502C18.0856 46.4357 17.7797 46.6511 17.4127 46.8013C17.0457 46.9516 16.6329 47.0267 16.1792 47.0267C15.5981 47.0267 15.0884 46.9115 14.6399 46.6761C14.1913 46.4407 13.8447 46.1152 13.6 45.6945C13.3554 45.2738 13.233 44.803 13.233 44.2721C13.233 43.7412 13.3503 43.2804 13.5898 42.8597C13.8294 42.439 14.1556 42.1135 14.5736 41.8781C14.9916 41.6427 15.4605 41.5275 15.9855 41.5275C16.5105 41.5275 16.9744 41.6427 17.3873 41.8781C17.795 42.1135 18.1162 42.439 18.3506 42.8597C18.58 43.2804 18.6972 43.7612 18.6972 44.3021C18.6972 44.3773 18.6921 44.4724 18.6769 44.5976H14.2219ZM14.7877 42.7796C14.4665 43.0651 14.2779 43.4357 14.2219 43.8965H17.7339C17.6778 43.4407 17.4892 43.0701 17.1681 42.7846C16.8469 42.4991 16.4494 42.3539 15.9753 42.3539C15.5013 42.3539 15.1037 42.4941 14.7826 42.7796H14.7877Z" fill="#1960A7"/>
<path d="M21.7148 41.7779C22.0512 41.6176 22.4641 41.5325 22.9433 41.5325V42.479C22.8872 42.474 22.8107 42.469 22.7139 42.469C22.1787 42.469 21.7556 42.6243 21.4498 42.9398C21.1439 43.2553 20.991 43.7011 20.991 44.2871V46.9666H19.9971V41.5825H20.9503V42.4841C21.1236 42.1735 21.3784 41.9381 21.7148 41.7729V41.7779Z" fill="#1960A7"/>
<path d="M29.4165 41.5826V46.2354C29.4165 47.177 29.177 47.8731 28.7029 48.3239C28.2289 48.7747 27.5153 49 26.5723 49C26.0575 49 25.563 48.9299 25.0941 48.7897C24.6251 48.6494 24.2479 48.4541 23.9574 48.1937L24.4314 47.4424C24.6863 47.6578 25.0023 47.8281 25.3795 47.9533C25.7567 48.0785 26.1441 48.1436 26.5417 48.1436C27.1839 48.1436 27.658 47.9933 27.9638 47.6979C28.2697 47.3973 28.4226 46.9466 28.4226 46.3356V45.9099C28.1881 46.1853 27.9027 46.3957 27.5611 46.5359C27.2196 46.6761 26.8475 46.7463 26.4499 46.7463C25.9249 46.7463 25.4509 46.6361 25.0278 46.4157C24.6048 46.1953 24.2734 45.8898 24.0288 45.4892C23.7892 45.0935 23.6669 44.6427 23.6669 44.1319C23.6669 43.621 23.7892 43.1703 24.0288 42.7746C24.2683 42.3789 24.6048 42.0734 25.0278 41.8531C25.4509 41.6377 25.9249 41.5275 26.4499 41.5275C26.8628 41.5275 27.2451 41.6026 27.6019 41.7529C27.9587 41.9031 28.2493 42.1235 28.4735 42.414V41.5826H29.4165ZM27.5306 45.6644C27.816 45.5142 28.0403 45.3088 28.2034 45.0384C28.3665 44.773 28.4481 44.4674 28.4481 44.1319C28.4481 43.611 28.2747 43.1903 27.923 42.8698C27.5713 42.5492 27.1228 42.389 26.5672 42.389C26.0116 42.389 25.5528 42.5492 25.2011 42.8698C24.8494 43.1903 24.6761 43.611 24.6761 44.1319C24.6761 44.4725 24.7577 44.773 24.9208 45.0384C25.0839 45.3038 25.3082 45.5142 25.5936 45.6644C25.8791 45.8147 26.2053 45.8898 26.5723 45.8898C26.9393 45.8898 27.2502 45.8147 27.5408 45.6644H27.5306Z" fill="#1960A7"/>
<path d="M32.373 39.4791H33.632L31.8939 40.8013H30.9662L32.373 39.4791ZM31.2465 41.5826H32.2405V46.9666H31.2465V41.5826Z" fill="#1960A7"/>
<path d="M37.8014 42.0834C38.2041 42.4491 38.408 42.995 38.408 43.7162V46.9666H37.465V46.2554C37.3019 46.5059 37.0623 46.6962 36.7565 46.8314C36.4507 46.9616 36.0888 47.0317 35.6657 47.0317C35.054 47.0317 34.5596 46.8865 34.1926 46.596C33.8256 46.3055 33.6421 45.9249 33.6421 45.4491C33.6421 44.9733 33.8154 44.5927 34.1671 44.3072C34.5188 44.0217 35.0744 43.8765 35.8441 43.8765H37.414V43.6811C37.414 43.2604 37.2917 42.9399 37.0419 42.7145C36.7922 42.4891 36.4303 42.3789 35.946 42.3789C35.6198 42.3789 35.3038 42.429 34.9929 42.5342C34.6819 42.6394 34.422 42.7796 34.2079 42.9549L33.795 42.2237C34.0754 41.9983 34.4169 41.828 34.8094 41.7128C35.2018 41.5926 35.6198 41.5375 36.0582 41.5375C36.8177 41.5375 37.3987 41.7178 37.8014 42.0834ZM36.8126 46.0301C37.0878 45.8648 37.2866 45.6294 37.414 45.3239V44.5726H35.8849C35.0438 44.5726 34.6259 44.8481 34.6259 45.404C34.6259 45.6745 34.7329 45.8898 34.947 46.0451C35.1611 46.2003 35.4567 46.2805 35.8339 46.2805C36.2111 46.2805 36.5424 46.1953 36.8177 46.0301H36.8126Z" fill="#1960A7"/>
<path d="M48.0725 39.4289V46.9666H47.1193V46.1151C46.9001 46.4156 46.6198 46.641 46.2834 46.7963C45.947 46.9515 45.5749 47.0317 45.1671 47.0317C44.637 47.0317 44.1629 46.9165 43.7399 46.6861C43.3219 46.4557 42.9906 46.1302 42.751 45.7145C42.5114 45.2988 42.3942 44.818 42.3942 44.2771C42.3942 43.7362 42.5114 43.2604 42.751 42.8447C42.9906 42.434 43.3168 42.1084 43.7399 41.878C44.1578 41.6477 44.637 41.5325 45.1671 41.5325C45.5596 41.5325 45.9215 41.6076 46.2528 41.7528C46.5841 41.8981 46.8594 42.1134 47.0785 42.3989V39.4339H48.0725V39.4289ZM46.1916 45.9348C46.472 45.7746 46.6963 45.5542 46.8543 45.2637C47.0123 44.9782 47.0938 44.6477 47.0938 44.2721C47.0938 43.8964 47.0123 43.5709 46.8543 43.2804C46.6963 42.9949 46.4771 42.7695 46.1916 42.6143C45.9113 42.459 45.5953 42.3789 45.2486 42.3789C44.902 42.3789 44.5809 42.459 44.3006 42.6143C44.0202 42.7695 43.801 42.9899 43.6379 43.2804C43.4748 43.5659 43.3933 43.8964 43.3933 44.2721C43.3933 44.6477 43.4748 44.9732 43.6379 45.2637C43.801 45.5492 44.0202 45.7746 44.3006 45.9348C44.5809 46.0951 44.8969 46.1752 45.2486 46.1752C45.6003 46.1752 45.9062 46.0951 46.1916 45.9348Z" fill="#1960A7"/>
<path d="M50.3765 44.5977C50.4376 45.0735 50.6517 45.4541 51.0136 45.7396C51.3755 46.0251 51.8241 46.1703 52.3644 46.1703C53.0168 46.1703 53.5469 45.9549 53.9445 45.5192L54.4899 46.1503C54.2402 46.4357 53.9343 46.6511 53.5673 46.8014C53.2003 46.9516 52.7875 47.0267 52.3338 47.0267C51.7527 47.0267 51.243 46.9115 50.7944 46.6761C50.3459 46.4407 49.9993 46.1152 49.7546 45.6945C49.5099 45.2738 49.3876 44.803 49.3876 44.2721C49.3876 43.7412 49.5048 43.2804 49.7444 42.8597C49.984 42.439 50.3102 42.1135 50.7282 41.8781C51.1462 41.6427 51.6151 41.5275 52.1401 41.5275C52.6651 41.5275 53.129 41.6427 53.5418 41.8781C53.9496 42.1135 54.2708 42.439 54.5052 42.8597C54.7346 43.2804 54.8518 43.7613 54.8518 44.3022C54.8518 44.3773 54.8467 44.4724 54.8314 44.5977H50.3765ZM50.9423 42.7796C50.6211 43.0651 50.4325 43.4357 50.3765 43.8965H53.8885C53.8324 43.4407 53.6438 43.0701 53.3227 42.7846C53.0015 42.4991 52.604 42.3539 52.1299 42.3539C51.6559 42.3539 51.2583 42.4941 50.9372 42.7796H50.9423Z" fill="#1960A7"/>
<path d="M61.9523 46.6511C61.8096 46.7713 61.6261 46.8664 61.4171 46.9315C61.203 46.9967 60.9838 47.0267 60.7545 47.0267C60.204 47.0267 59.7758 46.8815 59.4751 46.591C59.1692 46.3005 59.0214 45.8848 59.0214 45.3439V42.3889H58.0937V41.5876H59.0214V40.4106H60.0154V41.5876H61.5853V42.3889H60.0154V45.3038C60.0154 45.5943 60.0918 45.8197 60.2396 45.9749C60.3875 46.1302 60.6015 46.2103 60.8768 46.2103C61.1775 46.2103 61.4375 46.1252 61.6516 45.9549L61.9625 46.6561L61.9523 46.6511Z" fill="#1960A7"/>
<path d="M63.9706 46.6711C63.5374 46.4357 63.1959 46.1052 62.9512 45.6895C62.7065 45.2738 62.5842 44.803 62.5842 44.2721C62.5842 43.7412 62.7065 43.2704 62.9512 42.8547C63.1959 42.439 63.5374 42.1135 63.9706 41.8781C64.4039 41.6427 64.8932 41.5275 65.4386 41.5275C65.984 41.5275 66.4683 41.6427 66.9016 41.8781C67.3297 42.1135 67.6712 42.439 67.9159 42.8547C68.1606 43.2704 68.2829 43.7412 68.2829 44.2721C68.2829 44.803 68.1606 45.2738 67.9159 45.6895C67.6712 46.1052 67.3348 46.4307 66.9016 46.6711C66.4683 46.9065 65.984 47.0267 65.4386 47.0267C64.8932 47.0267 64.4039 46.9065 63.9706 46.6711ZM66.3816 45.9349C66.662 45.7746 66.8812 45.5542 67.0392 45.2638C67.1972 44.9783 67.2787 44.6477 67.2787 44.2721C67.2787 43.8965 67.1972 43.5709 67.0392 43.2804C66.8812 42.995 66.662 42.7696 66.3816 42.6143C66.1013 42.4591 65.7853 42.3789 65.4335 42.3789C65.0818 42.3789 64.7658 42.4591 64.4855 42.6143C64.2051 42.7696 63.9859 42.9899 63.8228 43.2804C63.6597 43.5659 63.5782 43.8965 63.5782 44.2721C63.5782 44.6477 63.6597 44.9733 63.8228 45.2638C63.9859 45.5492 64.2051 45.7746 64.4855 45.9349C64.7658 46.0952 65.0818 46.1753 65.4335 46.1753C65.7853 46.1753 66.1013 46.0952 66.3816 45.9349Z" fill="#1960A7"/>
<path d="M74.7615 39.4289V46.9666H73.8083V46.1151C73.5891 46.4156 73.3088 46.641 72.9723 46.7963C72.6359 46.9515 72.2638 47.0317 71.856 47.0317C71.3259 47.0317 70.8519 46.9165 70.4288 46.6861C70.0108 46.4557 69.6795 46.1302 69.44 45.7145C69.2004 45.2988 69.0832 44.818 69.0832 44.2771C69.0832 43.7362 69.2004 43.2604 69.44 42.8447C69.6795 42.434 70.0057 42.1084 70.4288 41.878C70.8468 41.6477 71.3259 41.5325 71.856 41.5325C72.2485 41.5325 72.6104 41.6076 72.9417 41.7528C73.2731 41.8981 73.5483 42.1134 73.7675 42.3989V39.4339H74.7615V39.4289ZM72.8806 45.9348C73.1609 45.7746 73.3852 45.5542 73.5432 45.2637C73.7012 44.9782 73.7828 44.6477 73.7828 44.2721C73.7828 43.8964 73.7012 43.5709 73.5432 43.2804C73.3852 42.9949 73.166 42.7695 72.8806 42.6143C72.6002 42.459 72.2842 42.3789 71.9376 42.3789C71.591 42.3789 71.2699 42.459 70.9895 42.6143C70.7092 42.7695 70.49 42.9899 70.3269 43.2804C70.1638 43.5659 70.0822 43.8964 70.0822 44.2721C70.0822 44.6477 70.1638 44.9732 70.3269 45.2637C70.49 45.5492 70.7092 45.7746 70.9895 45.9348C71.2699 46.0951 71.5859 46.1752 71.9376 46.1752C72.2893 46.1752 72.5951 46.0951 72.8806 45.9348Z" fill="#1960A7"/>
<path d="M77.4579 46.6711C77.0246 46.4357 76.6831 46.1052 76.4385 45.6895C76.1938 45.2738 76.0715 44.803 76.0715 44.2721C76.0715 43.7412 76.1938 43.2704 76.4385 42.8547C76.6831 42.439 77.0246 42.1135 77.4579 41.8781C77.8912 41.6427 78.3805 41.5275 78.9259 41.5275C79.4713 41.5275 79.9555 41.6427 80.3888 41.8781C80.817 42.1135 81.1585 42.439 81.4032 42.8547C81.6478 43.2704 81.7702 43.7412 81.7702 44.2721C81.7702 44.803 81.6478 45.2738 81.4032 45.6895C81.1585 46.1052 80.8221 46.4307 80.3888 46.6711C79.9555 46.9065 79.4713 47.0267 78.9259 47.0267C78.3805 47.0267 77.8912 46.9065 77.4579 46.6711ZM79.8689 45.9349C80.1492 45.7746 80.3684 45.5542 80.5264 45.2638C80.6844 44.9783 80.766 44.6477 80.766 44.2721C80.766 43.8965 80.6844 43.5709 80.5264 43.2804C80.3684 42.995 80.1492 42.7696 79.8689 42.6143C79.5885 42.4591 79.2725 42.3789 78.9208 42.3789C78.5691 42.3789 78.2531 42.4591 77.9727 42.6143C77.6924 42.7696 77.4732 42.9899 77.3101 43.2804C77.147 43.5659 77.0654 43.8965 77.0654 44.2721C77.0654 44.6477 77.147 44.9733 77.3101 45.2638C77.4732 45.5492 77.6924 45.7746 77.9727 45.9349C78.2531 46.0952 78.5691 46.1753 78.9208 46.1753C79.2725 46.1753 79.5885 46.0952 79.8689 45.9349Z" fill="#1960A7"/>
<path d="M83.3604 46.8514C82.9475 46.7312 82.6213 46.581 82.3868 46.4007L82.7997 45.6294C83.0392 45.7996 83.3349 45.9349 83.6764 46.035C84.023 46.1352 84.3696 46.1853 84.7213 46.1853C85.5878 46.1853 86.0211 45.9399 86.0211 45.4541C86.0211 45.2938 85.965 45.1636 85.8478 45.0684C85.7306 44.9733 85.5827 44.9031 85.4094 44.8581C85.2361 44.813 84.9864 44.7629 84.6601 44.7128C84.2167 44.6477 83.8599 44.5676 83.5795 44.4774C83.2992 44.3873 83.0596 44.242 82.8608 44.0317C82.662 43.8213 82.5601 43.5258 82.5601 43.1502C82.5601 42.6644 82.7691 42.2737 83.1819 41.9782C83.5948 41.6827 84.1504 41.5375 84.8436 41.5375C85.2106 41.5375 85.5725 41.5826 85.9395 41.6677C86.3065 41.7579 86.6022 41.8731 86.8367 42.0233L86.4136 42.7946C85.965 42.5091 85.44 42.3689 84.8335 42.3689C84.4155 42.3689 84.0944 42.439 83.8701 42.5742C83.6509 42.7095 83.5387 42.8898 83.5387 43.1101C83.5387 43.2854 83.5999 43.4257 83.7223 43.5258C83.8446 43.626 83.9975 43.7011 84.181 43.7512C84.3645 43.7963 84.6194 43.8514 84.9507 43.9115C85.389 43.9866 85.7458 44.0667 86.0211 44.1519C86.2912 44.237 86.5257 44.3823 86.7194 44.5826C86.9131 44.7879 87.01 45.0684 87.01 45.434C87.01 45.9198 86.7959 46.3105 86.3728 46.596C85.9497 46.8815 85.3737 47.0267 84.6397 47.0267C84.1912 47.0267 83.763 46.9666 83.3502 46.8514H83.3604Z" fill="#1960A7"/>
<path d="M188.248 33.3627H188.856V37.6083H188.286V36.7498C187.55 37.3727 186.581 37.6659 185.558 37.6659C183.315 37.6659 181.189 36.1268 181.189 33.3365C181.189 30.8289 183.118 28.981 185.76 28.981C187.018 28.981 188.126 29.3736 188.898 30.1536L188.499 30.5672C187.737 29.8343 186.831 29.5516 185.771 29.5516C183.506 29.5516 181.823 31.164 181.823 33.3313C181.823 35.7289 183.666 37.1005 185.595 37.1005C186.543 37.1005 187.513 36.7812 188.248 36.0745V33.3575V33.3627Z" fill="#333333"/>
<path d="M190.742 34.4151C190.742 32.52 192.122 31.1746 193.992 31.1746C195.862 31.1746 197.242 32.52 197.242 34.4151C197.242 36.3102 195.862 37.6556 193.992 37.6556C192.122 37.6556 190.742 36.3102 190.742 34.4151ZM196.608 34.4151C196.608 32.8132 195.489 31.7243 193.992 31.7243C192.494 31.7243 191.376 32.8132 191.376 34.4151C191.376 36.017 192.494 37.1059 193.992 37.1059C195.489 37.1059 196.608 36.017 196.608 34.4151Z" fill="#333333"/>
<path d="M205.644 34.415C205.644 36.3258 204.264 37.6555 202.431 37.6555C201.259 37.6555 200.279 37.0796 199.767 36.1007V37.6031H199.171V28.5256H199.794V32.6717C200.316 31.719 201.286 31.1693 202.431 31.1693C204.259 31.1693 205.644 32.4885 205.644 34.4098V34.415ZM205.021 34.415C205.021 32.8131 203.886 31.7242 202.394 31.7242C200.902 31.7242 199.778 32.8131 199.778 34.415C199.778 36.0169 200.897 37.1058 202.394 37.1058C203.891 37.1058 205.021 36.0169 205.021 34.415Z" fill="#333333"/>
<path d="M207.37 29.1799C207.37 28.9129 207.594 28.6773 207.882 28.6773C208.169 28.6773 208.393 28.8972 208.393 29.1642C208.393 29.4312 208.169 29.6667 207.882 29.6667C207.594 29.6667 207.37 29.4469 207.37 29.1799ZM207.567 31.2216H208.191V37.6083H207.567V31.2216Z" fill="#333333"/>
<path d="M215.564 36.2107L215.927 36.6138C215.356 37.2996 214.472 37.6555 213.476 37.6555C211.51 37.6555 210.114 36.3101 210.114 34.415C210.114 32.52 211.435 31.1746 213.273 31.1746C215.005 31.1746 216.236 32.4467 216.321 34.1481L210.833 35.2003C211.142 36.373 212.154 37.1111 213.486 37.1111C214.323 37.1111 215.069 36.8179 215.564 36.2159V36.2107ZM210.721 34.3627C210.721 34.4831 210.732 34.6192 210.748 34.7396L215.703 33.7868C215.527 32.6508 214.605 31.7085 213.273 31.7085C211.781 31.7085 210.721 32.8079 210.721 34.3627Z" fill="#333333"/>
<path d="M221.329 31.7713C221.281 31.7713 221.228 31.7608 221.18 31.7608C219.736 31.7608 218.878 32.7031 218.878 34.2789V37.6084H218.255V31.2216H218.852V32.6141C219.251 31.6823 220.109 31.1693 221.329 31.1693V31.7713Z" fill="#333333"/>
<path d="M228.857 33.8759V37.6085H228.234V33.9282C228.234 32.4834 227.451 31.7243 226.13 31.7243C224.601 31.7243 223.663 32.6928 223.663 34.2057V37.6085H223.039V31.2217H223.636V32.6038C224.073 31.7086 224.979 31.1746 226.215 31.1746C227.797 31.1746 228.852 32.0907 228.852 33.8759H228.857Z" fill="#333333"/>
<path d="M230.727 34.415C230.727 32.52 232.107 31.1746 233.977 31.1746C235.848 31.1746 237.227 32.52 237.227 34.415C237.227 36.3101 235.848 37.6555 233.977 37.6555C232.107 37.6555 230.727 36.3101 230.727 34.415ZM236.593 34.415C236.593 32.8131 235.475 31.7242 233.977 31.7242C232.48 31.7242 231.361 32.8131 231.361 34.415C231.361 36.017 232.48 37.1059 233.977 37.1059C235.475 37.1059 236.593 36.017 236.593 34.415Z" fill="#333333"/>
<path d="M248.129 28.5309V37.6084H247.521V36.106C247.01 37.0954 246.029 37.6608 244.857 37.6608C243.03 37.6608 241.644 36.3258 241.644 34.4203C241.644 32.5147 243.024 31.1798 244.857 31.1798C246.013 31.1798 246.988 31.7399 247.51 32.7084V28.5361H248.134L248.129 28.5309ZM247.505 34.4151C247.505 32.8131 246.386 31.7242 244.889 31.7242C243.392 31.7242 242.273 32.8131 242.273 34.4151C242.273 36.017 243.392 37.1059 244.889 37.1059C246.386 37.1059 247.505 36.017 247.505 34.4151Z" fill="#333333"/>
<path d="M255.502 36.2107L255.865 36.6138C255.295 37.2996 254.41 37.6555 253.414 37.6555C251.448 37.6555 250.052 36.3101 250.052 34.415C250.052 32.52 251.373 31.1746 253.211 31.1746C254.943 31.1746 256.174 32.4467 256.259 34.1481L250.771 35.2003C251.08 36.373 252.093 37.1111 253.424 37.1111C254.261 37.1111 255.007 36.8179 255.502 36.2159V36.2107ZM250.659 34.3627C250.659 34.4831 250.67 34.6192 250.686 34.7396L255.641 33.7868C255.465 32.6508 254.543 31.7085 253.211 31.7085C251.72 31.7085 250.659 32.8079 250.659 34.3627Z" fill="#333333"/>
<path d="M264.416 37.2053C264.091 37.5089 263.568 37.6555 263.084 37.6555C261.938 37.6555 261.315 36.9959 261.315 35.9175V29.8239H261.938V31.2164H264.005V31.7399H261.938V35.8494C261.938 36.6713 262.348 37.1215 263.148 37.1215C263.531 37.1215 263.893 37.0011 264.154 36.7655L264.416 37.1948V37.2053Z" fill="#333333"/>
<path d="M265.199 34.415C265.199 32.52 266.579 31.1746 268.449 31.1746C270.319 31.1746 271.699 32.52 271.699 34.415C271.699 36.3101 270.319 37.6555 268.449 37.6555C266.579 37.6555 265.199 36.3101 265.199 34.415ZM271.065 34.415C271.065 32.8131 269.946 31.7242 268.449 31.7242C266.952 31.7242 265.833 32.8131 265.833 34.415C265.833 36.017 266.952 37.1059 268.449 37.1059C269.946 37.1059 271.065 36.017 271.065 34.415Z" fill="#333333"/>
<path d="M279.403 28.5309V37.6084H278.796V36.106C278.284 37.0954 277.304 37.6608 276.132 37.6608C274.304 37.6608 272.919 36.3258 272.919 34.4203C272.919 32.5147 274.299 31.1798 276.132 31.1798C277.288 31.1798 278.263 31.7399 278.785 32.7084V28.5361H279.408L279.403 28.5309ZM278.78 34.4151C278.78 32.8131 277.661 31.7242 276.164 31.7242C274.666 31.7242 273.548 32.8131 273.548 34.4151C273.548 36.017 274.666 37.1059 276.164 37.1059C277.661 37.1059 278.78 36.017 278.78 34.4151Z" fill="#333333"/>
<path d="M281.321 34.415C281.321 32.52 282.701 31.1746 284.571 31.1746C286.441 31.1746 287.821 32.52 287.821 34.415C287.821 36.3101 286.441 37.6555 284.571 37.6555C282.701 37.6555 281.321 36.3101 281.321 34.415ZM287.187 34.415C287.187 32.8131 286.068 31.7242 284.571 31.7242C283.074 31.7242 281.955 32.8131 281.955 34.415C281.955 36.017 283.074 37.1059 284.571 37.1059C286.068 37.1059 287.187 36.017 287.187 34.415Z" fill="#333333"/>
<path d="M288.791 36.8388L289.078 36.352C289.574 36.7655 290.458 37.1215 291.417 37.1215C292.787 37.1215 293.335 36.6451 293.335 35.9227C293.335 34.0643 289.03 35.4358 289.03 32.9283C289.03 31.9598 289.851 31.1798 291.497 31.1798C292.318 31.1798 293.213 31.4258 293.724 31.8027L293.437 32.2896C292.888 31.897 292.179 31.7137 291.481 31.7137C290.213 31.7137 289.654 32.2268 289.654 32.9126C289.654 34.8338 293.959 33.4727 293.959 35.907C293.959 36.9488 293.048 37.6555 291.396 37.6555C290.325 37.6555 289.302 37.2995 288.796 36.8336L288.791 36.8388Z" fill="#333333"/>
<path d="M179.75 18.1708C179.75 14.1712 182.867 11.3338 187.108 11.3338C189.575 11.3338 191.562 12.2185 192.862 13.8152L190.454 15.9564C189.612 14.9617 188.578 14.4173 187.3 14.4173C185.099 14.4173 183.57 15.9197 183.57 18.176C183.57 20.4323 185.099 21.9348 187.3 21.9348C188.578 21.9348 189.612 21.3903 190.454 20.3957L192.862 22.5368C191.562 24.1335 189.575 25.0182 187.108 25.0182C182.861 25.0182 179.75 22.1808 179.75 18.1813V18.1708Z" fill="#333333"/>
<path d="M207.279 11.5956V24.746H203.496V19.6157H198.333V24.746H194.551V11.5956H198.333V16.5375H203.496V11.5956H207.279Z" fill="#333333"/>
<path d="M213.268 22.1913L212.218 24.746H208.356L214.264 11.5956H217.994L223.918 24.746H219.981L218.931 22.1913H213.268ZM217.818 19.4482L216.097 15.2392L214.376 19.4482H217.818Z" fill="#333333"/>
<path d="M224.105 18.1708C224.105 14.1712 227.221 11.3338 231.462 11.3338C233.929 11.3338 235.917 12.2185 237.217 13.8152L234.808 15.9564C233.967 14.9617 232.933 14.4173 231.654 14.4173C229.454 14.4173 227.925 15.9197 227.925 18.176C227.925 20.4323 229.454 21.9348 231.654 21.9348C232.933 21.9348 233.967 21.3903 234.808 20.3957L237.217 22.5368C235.917 24.1335 233.929 25.0182 231.462 25.0182C227.216 25.0182 224.105 22.1808 224.105 18.1812V18.1708Z" fill="#333333"/>
<path d="M237.931 18.1708C237.931 14.2236 241.085 11.3338 245.368 11.3338C249.652 11.3338 252.806 14.2288 252.806 18.1708C252.806 22.1128 249.652 25.0077 245.368 25.0077C241.085 25.0077 237.931 22.1128 237.931 18.1708ZM248.981 18.1708C248.981 15.8988 247.393 14.412 245.368 14.412C243.344 14.412 241.756 15.8935 241.756 18.1708C241.756 20.448 243.344 21.9295 245.368 21.9295C247.393 21.9295 248.981 20.448 248.981 18.1708Z" fill="#333333"/>
<path d="M158.79 7.49658C158.79 7.49658 159.52 7.42329 160.165 7.11966C160.596 6.92073 161.071 7.09872 161.145 7.17724C161.145 7.17724 160.564 6.59092 159.909 6.6328C159.248 6.67992 158.513 6.60663 158.38 6.40769L160.778 5.2141L158.332 5.27692C158.332 5.27692 158.939 4.87383 159.36 4.30844C159.643 3.93152 160.149 3.8687 160.25 3.90534C160.25 3.90534 159.456 3.6593 158.897 3.99957C158.348 4.33462 157.746 4.6016 157.517 4.50737L157.528 4.4969L159.217 2.46047L157.043 3.5703C157.043 3.5703 157.41 2.9421 157.538 2.2563C157.623 1.79562 158.05 1.51816 158.162 1.51293C158.162 1.51293 157.336 1.6281 156.984 2.17778C156.632 2.72746 156.201 3.23526 155.956 3.22479L156.654 0.64391L155.05 2.59658C155.05 2.59658 155.38 2.0312 155.109 1.05748C154.981 0.607265 155.285 0.183227 155.38 0.130876C155.38 0.130876 154.672 0.56015 154.571 1.19883C154.469 1.8375 154.357 2.38718 154.128 2.47094L153.542 4.43179e-09L152.935 2.37671C152.711 2.27724 152.605 1.84274 152.541 1.19883C152.471 0.554915 151.784 0.0889958 151.784 0.0889958C151.875 0.146581 152.157 0.58109 152.008 1.02607C151.763 1.76945 151.885 2.28248 151.955 2.47618L150.399 0.60203L151.097 3.17767C150.852 3.18814 150.42 2.68558 150.069 2.13066C149.717 1.58622 148.891 1.46581 148.891 1.46581C149.003 1.48152 149.429 1.75374 149.514 2.20919C149.648 2.90021 150.015 3.52318 150.015 3.52318L147.841 2.41336L149.53 4.45502L149.541 4.46549C149.317 4.56496 148.71 4.29797 148.161 3.95769C147.602 3.61742 146.808 3.86346 146.808 3.86346C146.909 3.82682 147.415 3.88964 147.698 4.26656C148.119 4.82671 148.726 5.23504 148.726 5.23504L146.28 5.17222L148.678 6.36581C148.545 6.56474 147.81 6.6328 147.149 6.58569C146.488 6.54381 145.907 7.13013 145.907 7.13013C145.982 7.0516 146.456 6.87361 146.888 7.07254C147.532 7.37094 148.262 7.44947 148.262 7.44947L146.078 8.52789L148.822 8.41795C148.785 8.65876 148.103 9.09327 147.49 9.32361C146.872 9.55919 146.595 10.3287 146.595 10.3287C146.627 10.224 146.984 9.86806 147.458 9.87329C147.841 9.87329 148.278 9.889 148.699 9.74765L147.394 11.7056L149.61 10.6271C149.578 10.6847 149.557 10.7214 149.557 10.7214C149.488 11.0041 149.387 11.3548 148.934 11.716C148.422 12.1244 148.401 12.941 148.401 12.941C148.401 12.8311 148.625 12.3809 149.078 12.2448C149.76 12.0354 150.015 11.894 150.292 11.716C150.457 11.6061 150.66 11.4019 150.836 11.1663C151.598 11.6951 152.519 12.004 153.526 12.004C154.533 12.004 155.466 11.6846 156.233 11.1506C156.414 11.3967 156.622 11.6061 156.787 11.716C157.064 11.8993 157.325 12.0354 158.002 12.2448C158.455 12.3809 158.678 12.8311 158.678 12.941C158.678 12.941 158.657 12.1191 158.146 11.716C157.693 11.3548 157.597 11.0041 157.522 10.7214C157.522 10.7214 157.517 10.6952 157.496 10.6481L159.659 11.7056L158.364 9.76336C158.774 9.889 159.195 9.87853 159.563 9.87329C160.037 9.86806 160.394 10.224 160.431 10.3287C160.431 10.3287 160.154 9.55919 159.536 9.32361C158.918 9.09327 158.247 8.68494 158.21 8.44413L160.953 8.54883L158.769 7.47564L158.79 7.49658ZM151.997 2.57041V2.58088L151.965 2.49712C151.987 2.54947 151.997 2.57564 151.997 2.57564V2.57041Z" fill="#FABD4D"/>
<path fill-rule="evenodd" clip-rule="evenodd" d="M164.758 25.6779C164.672 33.7817 159.595 40.3203 153.351 40.3203C147.106 40.3203 142.029 33.7817 141.944 25.6779H164.758Z" fill="white"/>
<path fill-rule="evenodd" clip-rule="evenodd" d="M142.141 25.6779C142.221 17.9563 147.213 11.7266 153.361 11.7266C159.51 11.7266 164.502 17.9563 164.582 25.6727H142.141V25.6779Z" fill="#83B7E4"/>
<path fill-rule="evenodd" clip-rule="evenodd" d="M138.917 25.7879C137.894 25.3377 137.441 24.4582 137.335 23.3483C137.244 22.4165 137.372 21.4951 137.559 20.6523C137.873 21.2857 138.15 21.982 138.534 22.5997C139.104 23.5159 139.216 24.4582 138.976 25.479C138.955 25.568 138.939 25.6622 138.917 25.7826V25.7879Z" fill="#3DA949"/>
<path fill-rule="evenodd" clip-rule="evenodd" d="M139.359 24.9869C139.413 24.0027 139.658 23.1756 140.478 22.6469C140.867 22.4008 141.166 21.9925 141.475 21.6888C141.395 22.1338 141.325 22.6678 141.203 23.1913C140.963 24.2383 140.35 24.8403 139.359 24.9869Z" fill="#3DA949"/>
<path fill-rule="evenodd" clip-rule="evenodd" d="M139.477 28.9602C138.379 28.7404 137.745 27.9813 137.388 26.9238C137.095 26.0286 137.015 25.1072 137.01 24.2435C137.457 24.7931 137.884 25.4213 138.395 25.9344C139.157 26.7039 139.471 27.6044 139.466 28.6514C139.466 28.7456 139.466 28.8398 139.471 28.9602H139.477Z" fill="#3DA949"/>
<path fill-rule="evenodd" clip-rule="evenodd" d="M139.738 28.086C139.573 27.1175 139.626 26.259 140.313 25.5679C140.638 25.2434 140.835 24.7827 141.065 24.4162C141.091 24.8664 141.139 25.4109 141.139 25.9396C141.139 27.0128 140.67 27.7248 139.738 28.0912V28.086Z" fill="#3DA949"/>
<path fill-rule="evenodd" clip-rule="evenodd" d="M139.775 31.8709C138.667 31.6982 138.001 30.9653 137.601 29.9235C137.26 29.0493 137.148 28.1227 137.106 27.2641C137.575 27.7929 138.027 28.4001 138.566 28.8974C139.359 29.6303 139.711 30.5151 139.759 31.5621C139.759 31.6563 139.77 31.7558 139.78 31.8709H139.775Z" fill="#3DA949"/>
<path fill-rule="evenodd" clip-rule="evenodd" d="M139.994 30.9862C139.78 30.023 139.796 29.1644 140.457 28.442C140.766 28.107 140.942 27.6306 141.16 27.2589C141.203 27.7091 141.278 28.2431 141.304 28.7771C141.347 29.8502 140.91 30.5884 139.999 30.9862H139.994Z" fill="#3DA949"/>
<path fill-rule="evenodd" clip-rule="evenodd" d="M140.627 34.8131C139.509 34.7712 138.752 34.1221 138.23 33.1379C137.788 32.3055 137.559 31.4051 137.415 30.5518C137.947 31.0229 138.47 31.5674 139.061 32.0019C139.94 32.6406 140.398 33.4729 140.574 34.5095C140.585 34.6037 140.606 34.6979 140.627 34.8131Z" fill="#3DA949"/>
<path fill-rule="evenodd" clip-rule="evenodd" d="M140.734 33.9126C140.409 32.9808 140.324 32.1222 140.883 31.3317C141.149 30.9653 141.267 30.468 141.437 30.0753C141.533 30.5151 141.677 31.0386 141.767 31.5673C141.938 32.6248 141.597 33.4101 140.734 33.9126Z" fill="#3DA949"/>
<path fill-rule="evenodd" clip-rule="evenodd" d="M142.136 36.6663C141.624 35.8077 141.374 34.991 141.763 34.1063C141.944 33.6928 141.965 33.1902 142.05 32.7662C142.231 33.1797 142.477 33.6666 142.668 34.1691C143.052 35.169 142.876 36.0066 142.13 36.6663H142.136Z" fill="#3DA949"/>
<path fill-rule="evenodd" clip-rule="evenodd" d="M143.894 39.1058C143.249 38.3519 142.849 37.5876 143.079 36.6505C143.19 36.2108 143.121 35.7082 143.132 35.2842C143.388 35.6559 143.713 36.0956 143.99 36.5563C144.538 37.4829 144.512 38.3362 143.894 39.1058Z" fill="#3DA949"/>
<path fill-rule="evenodd" clip-rule="evenodd" d="M146.584 40.8909C145.753 40.3413 145.156 39.7131 145.114 38.7446C145.092 38.2944 144.89 37.8284 144.783 37.4149C145.13 37.708 145.567 38.0431 145.961 38.4095C146.749 39.1529 146.962 39.9748 146.584 40.8909Z" fill="#3DA949"/>
<path fill-rule="evenodd" clip-rule="evenodd" d="M138.768 17.9613C139.013 18.689 139.237 19.4167 139.498 20.1339C139.828 21.0395 139.652 21.8614 139.29 22.6938C138.773 22.3587 138.432 21.8824 138.299 21.2437C138.139 20.5055 138.23 19.7883 138.416 19.0921C138.523 18.6994 138.661 18.3173 138.768 17.9613Z" fill="#3DA949"/>
<path fill-rule="evenodd" clip-rule="evenodd" d="M137.963 34.1062C138.661 34.4464 139.349 34.7972 140.057 35.1113C140.942 35.5092 141.421 36.2107 141.773 37.0483C141.166 37.1791 140.59 37.0849 140.025 36.7289C139.381 36.3258 138.917 35.7604 138.539 35.1427C138.326 34.792 138.145 34.4307 137.963 34.1009V34.1062Z" fill="#3DA949"/>
<path fill-rule="evenodd" clip-rule="evenodd" d="M142.135 19.558C141.976 19.9977 141.826 20.5003 141.619 20.9662C141.256 21.7671 140.633 22.1022 139.796 22.0865C139.983 21.2855 140.249 20.5997 141.011 20.2752C141.411 20.1024 141.762 19.804 142.141 19.558H142.135Z" fill="#3DA949"/>
<path fill-rule="evenodd" clip-rule="evenodd" d="M139.658 19.7571C139.103 19.066 139.05 18.2965 139.322 17.4693C139.551 16.7521 139.951 16.1449 140.441 15.4853C140.414 15.768 140.382 15.9564 140.382 16.1449C140.393 16.5846 140.382 17.0348 140.451 17.4641C140.585 18.286 140.313 18.9352 139.86 19.5372C139.812 19.6052 139.764 19.6681 139.711 19.7361C139.711 19.7361 139.695 19.7414 139.652 19.7571H139.658Z" fill="#3DA949"/>
<path fill-rule="evenodd" clip-rule="evenodd" d="M140.281 19.3749C140.622 18.6891 141.086 18.218 141.826 18.1342C142.188 18.0924 142.54 17.9458 142.838 17.862C142.151 19.1708 141.416 19.7676 140.281 19.3749Z" fill="#3DA949"/>
<path fill-rule="evenodd" clip-rule="evenodd" d="M140.771 17.5059C140.457 16.8987 140.435 16.3123 140.691 15.6998C141 14.9617 141.517 14.4382 142.055 13.9409C141.959 14.6685 141.885 15.391 141.762 16.1082C141.65 16.7207 141.235 17.1133 140.771 17.5059Z" fill="#3DA949"/>
<path fill-rule="evenodd" clip-rule="evenodd" d="M143.904 16.4171C143.195 17.1762 142.476 17.93 141.368 17.2756C141.789 16.7207 142.284 16.3752 142.982 16.4747C143.286 16.5166 143.606 16.438 143.899 16.4171H143.904Z" fill="#3DA949"/>
<path fill-rule="evenodd" clip-rule="evenodd" d="M142.439 15.9093C142.093 15.3125 142.034 14.7314 142.258 14.1084C142.53 13.3598 143.015 12.8049 143.532 12.2762C143.473 13.0091 143.441 13.742 143.35 14.4592C143.276 15.0769 142.882 15.4905 142.445 15.9093H142.439Z" fill="#3DA949"/>
<path fill-rule="evenodd" clip-rule="evenodd" d="M145.508 14.6475C144.842 15.438 144.166 16.239 143.02 15.6474C143.414 15.0663 143.889 14.6946 144.592 14.7575C144.901 14.7836 145.215 14.6894 145.508 14.6475Z" fill="#3DA949"/>
<path fill-rule="evenodd" clip-rule="evenodd" d="M143.771 14.0876C143.553 13.4384 143.617 12.8573 143.963 12.292C144.379 11.6062 144.97 11.1664 145.577 10.7529C145.37 11.4544 145.188 12.1663 144.954 12.8521C144.752 13.4489 144.283 13.7735 143.766 14.0928L143.771 14.0876Z" fill="#3DA949"/>
<path fill-rule="evenodd" clip-rule="evenodd" d="M147.059 13.1976C146.318 13.9201 145.567 14.6582 144.485 13.9567C144.933 13.4123 145.444 13.0929 146.137 13.2133C146.441 13.2657 146.76 13.2029 147.059 13.1924V13.1976Z" fill="#3DA949"/>
<path fill-rule="evenodd" clip-rule="evenodd" d="M149.152 42.4143C148.262 41.9589 147.597 41.3935 147.447 40.4407C147.378 39.9957 147.122 39.556 146.968 39.1581C147.346 39.4094 147.82 39.6921 148.252 40.0219C149.12 40.671 149.424 41.4668 149.152 42.4195V42.4143Z" fill="#3DA949"/>
<path fill-rule="evenodd" clip-rule="evenodd" d="M148.641 10.4386C147.794 11.8626 147.282 13.1818 145.316 12.5379C145.785 11.5171 146.44 10.8103 147.57 10.7266C148.065 10.6847 148.183 10.5695 148.641 10.4386Z" fill="#3DA949"/>
<path fill-rule="evenodd" clip-rule="evenodd" d="M151.06 43.6603C150.564 44.1995 149.936 44.3513 149.211 44.2519C148.582 44.1681 148.028 43.9378 147.41 43.6341C147.65 43.6184 147.81 43.6184 147.964 43.587C148.332 43.519 148.705 43.4614 149.051 43.3462C149.712 43.1263 150.287 43.2467 150.852 43.5242C150.916 43.5556 150.974 43.5818 151.038 43.6184C151.038 43.6184 151.044 43.6289 151.065 43.6603H151.06Z" fill="#3DA949"/>
<path fill-rule="evenodd" clip-rule="evenodd" d="M146.669 41.6919C146.057 42.0112 145.465 42.0479 144.837 41.8123C144.08 41.5296 143.531 41.0323 143.02 40.514C143.76 40.5925 144.496 40.6449 145.231 40.7548C145.86 40.8543 146.27 41.2521 146.675 41.6971L146.669 41.6919Z" fill="#3DA949"/>
<path fill-rule="evenodd" clip-rule="evenodd" d="M149.056 42.6865C148.529 43.1262 147.953 43.2885 147.287 43.1838C146.488 43.0634 145.843 42.6865 145.231 42.2886C145.971 42.2101 146.701 42.1106 147.442 42.0688C148.076 42.0321 148.561 42.341 149.051 42.6917L149.056 42.6865Z" fill="#3DA949"/>
<path fill-rule="evenodd" clip-rule="evenodd" d="M144.746 39.9904C144.149 40.3464 143.558 40.4092 142.918 40.205C142.146 39.959 141.576 39.4931 141.027 39.001C141.773 39.0428 142.519 39.0586 143.254 39.1318C143.883 39.1947 144.314 39.5716 144.751 39.9904H144.746Z" fill="#3DA949"/>
<path fill-rule="evenodd" clip-rule="evenodd" d="M142.881 38.6399C142.237 38.8859 141.64 38.8545 141.043 38.5404C140.324 38.1687 139.844 37.6086 139.397 37.0327C140.121 37.195 140.851 37.3416 141.56 37.5353C142.173 37.7028 142.53 38.1478 142.876 38.6399H142.881Z" fill="#3DA949"/>
<path fill-rule="evenodd" clip-rule="evenodd" d="M168.061 25.7878C169.084 25.3375 169.537 24.4581 169.643 23.3482C169.734 22.4164 169.606 21.495 169.419 20.6522C169.105 21.2856 168.828 21.9819 168.444 22.5996C167.874 23.5158 167.762 24.4581 168.002 25.4789C168.018 25.5679 168.039 25.6621 168.061 25.7825V25.7878Z" fill="#3DA949"/>
<path fill-rule="evenodd" clip-rule="evenodd" d="M167.619 24.9868C167.565 24.0026 167.32 23.1754 166.5 22.6467C166.111 22.4007 165.812 21.9923 165.503 21.6887C165.583 22.1337 165.647 22.6677 165.775 23.1912C166.015 24.2382 166.628 24.8402 167.619 24.9868Z" fill="#3DA949"/>
<path fill-rule="evenodd" clip-rule="evenodd" d="M167.496 28.9602C168.594 28.7403 169.233 27.9813 169.585 26.9238C169.878 26.0286 169.958 25.1072 169.963 24.2434C169.515 24.7931 169.089 25.4213 168.578 25.9344C167.816 26.7039 167.501 27.6043 167.507 28.6513C167.507 28.7456 167.507 28.8398 167.501 28.9602H167.496Z" fill="#3DA949"/>
<path fill-rule="evenodd" clip-rule="evenodd" d="M167.24 28.0859C167.405 27.1175 167.352 26.2589 166.665 25.5679C166.34 25.2433 166.143 24.7826 165.914 24.4162C165.887 24.8664 165.834 25.4108 165.839 25.9396C165.839 27.0128 166.308 27.7247 167.24 28.0912V28.0859Z" fill="#3DA949"/>
<path fill-rule="evenodd" clip-rule="evenodd" d="M167.203 31.871C168.312 31.6982 168.978 30.9653 169.377 29.9235C169.718 29.0493 169.83 28.1227 169.873 27.2641C169.409 27.7929 168.951 28.4001 168.413 28.8975C167.619 29.6304 167.267 30.5151 167.219 31.5621C167.219 31.6563 167.209 31.7558 167.203 31.871Z" fill="#3DA949"/>
<path fill-rule="evenodd" clip-rule="evenodd" d="M166.985 30.9862C167.193 30.0229 167.182 29.1644 166.521 28.4419C166.212 28.1069 166.036 27.6305 165.818 27.2588C165.775 27.709 165.701 28.243 165.674 28.777C165.631 29.8502 166.068 30.5883 166.979 30.9862H166.985Z" fill="#3DA949"/>
<path fill-rule="evenodd" clip-rule="evenodd" d="M166.351 34.813C167.475 34.7711 168.221 34.1219 168.748 33.1377C169.19 32.3054 169.419 31.4049 169.563 30.5516C169.031 31.0228 168.508 31.5672 167.917 32.0017C167.038 32.6404 166.58 33.4728 166.409 34.5093C166.399 34.6036 166.377 34.6978 166.356 34.813H166.351Z" fill="#3DA949"/>
<path fill-rule="evenodd" clip-rule="evenodd" d="M166.239 33.9124C166.569 32.9806 166.654 32.1221 166.09 31.3316C165.823 30.9651 165.706 30.4678 165.535 30.0752C165.439 30.5149 165.296 31.0384 165.205 31.5671C165.035 32.6246 165.376 33.4099 166.233 33.9124H166.239Z" fill="#3DA949"/>
<path fill-rule="evenodd" clip-rule="evenodd" d="M164.843 36.6662C165.349 35.8077 165.61 34.991 165.21 34.1063C165.029 33.6927 165.008 33.1902 164.923 32.7661C164.742 33.1797 164.497 33.6665 164.305 34.1691C163.921 35.169 164.097 36.0066 164.843 36.6662Z" fill="#3DA949"/>
<path fill-rule="evenodd" clip-rule="evenodd" d="M163.079 39.1057C163.729 38.3518 164.124 37.5875 163.895 36.6505C163.783 36.2107 163.852 35.7081 163.841 35.2841C163.586 35.6558 163.266 36.0955 162.983 36.5562C162.435 37.4828 162.461 38.3361 163.079 39.1057Z" fill="#3DA949"/>
<path fill-rule="evenodd" clip-rule="evenodd" d="M160.394 40.8908C161.225 40.3411 161.822 39.7129 161.864 38.7444C161.88 38.2942 162.088 37.8283 162.195 37.4147C161.848 37.7079 161.412 38.0429 161.017 38.4094C160.229 39.1528 160.016 39.9747 160.394 40.8908Z" fill="#3DA949"/>
<path fill-rule="evenodd" clip-rule="evenodd" d="M168.21 17.9614C167.965 18.6891 167.746 19.4167 167.48 20.1339C167.15 21.0396 167.326 21.8615 167.688 22.6939C168.205 22.3588 168.54 21.8824 168.679 21.2438C168.839 20.5056 168.748 19.7884 168.562 19.0922C168.455 18.6995 168.316 18.3174 168.205 17.9614H168.21Z" fill="#3DA949"/>
<path fill-rule="evenodd" clip-rule="evenodd" d="M169.009 34.1061C168.311 34.4464 167.624 34.7971 166.915 35.1112C166.026 35.5091 165.551 36.2106 165.194 37.0482C165.802 37.179 166.383 37.0848 166.942 36.7288C167.592 36.3257 168.05 35.7604 168.428 35.1426C168.642 34.7919 168.823 34.4307 169.004 34.1008L169.009 34.1061Z" fill="#3DA949"/>
<path fill-rule="evenodd" clip-rule="evenodd" d="M164.843 19.558C165.003 19.9977 165.152 20.5003 165.365 20.9662C165.727 21.7672 166.351 22.1022 167.187 22.0865C167.001 21.2856 166.734 20.5998 165.972 20.2752C165.573 20.1024 165.216 19.804 164.843 19.558Z" fill="#3DA949"/>
<path fill-rule="evenodd" clip-rule="evenodd" d="M167.321 19.757C167.875 19.066 167.923 18.2964 167.656 17.4693C167.427 16.7521 167.028 16.1448 166.537 15.4852C166.564 15.7679 166.596 15.9563 166.591 16.1448C166.58 16.5845 166.591 17.0348 166.521 17.464C166.388 18.2859 166.66 18.9351 167.113 19.5371C167.161 19.6052 167.209 19.668 167.262 19.736C167.267 19.736 167.278 19.7413 167.321 19.757Z" fill="#3DA949"/>
<path fill-rule="evenodd" clip-rule="evenodd" d="M166.697 19.3748C166.356 18.689 165.893 18.2178 165.152 18.1341C164.79 18.0922 164.438 17.9456 164.14 17.8619C164.827 19.1706 165.568 19.7674 166.697 19.3748Z" fill="#3DA949"/>
<path fill-rule="evenodd" clip-rule="evenodd" d="M166.201 17.5058C166.516 16.8985 166.542 16.3122 166.281 15.6997C165.972 14.9616 165.455 14.4381 164.912 13.9407C165.008 14.6684 165.082 15.3908 165.205 16.108C165.317 16.7205 165.738 17.1132 166.196 17.5058H166.201Z" fill="#3DA949"/>
<path fill-rule="evenodd" clip-rule="evenodd" d="M163.074 16.417C163.782 17.1761 164.502 17.9299 165.61 17.2755C165.189 16.7206 164.694 16.3751 163.996 16.4746C163.692 16.5164 163.372 16.4379 163.074 16.417Z" fill="#3DA949"/>
<path fill-rule="evenodd" clip-rule="evenodd" d="M164.534 15.9093C164.88 15.3125 164.939 14.7314 164.715 14.1084C164.449 13.3598 163.959 12.8049 163.447 12.2762C163.506 13.0091 163.538 13.742 163.634 14.4592C163.708 15.0769 164.103 15.4905 164.539 15.9093H164.534Z" fill="#3DA949"/>
<path fill-rule="evenodd" clip-rule="evenodd" d="M161.471 14.6476C162.137 15.4381 162.813 16.239 163.959 15.6475C163.564 15.0664 163.09 14.6947 162.392 14.7575C162.083 14.7837 161.769 14.6894 161.476 14.6476H161.471Z" fill="#3DA949"/>
<path fill-rule="evenodd" clip-rule="evenodd" d="M163.207 14.0873C163.426 13.4382 163.362 12.8571 163.015 12.2917C162.6 11.6059 162.008 11.1662 161.401 10.7526C161.609 11.4541 161.79 12.1661 162.024 12.8519C162.227 13.4487 162.701 13.7732 163.212 14.0926L163.207 14.0873Z" fill="#3DA949"/>
<path fill-rule="evenodd" clip-rule="evenodd" d="M159.92 13.1973C160.66 13.9198 161.411 14.6579 162.493 13.9564C162.045 13.412 161.534 13.0926 160.841 13.213C160.538 13.2654 160.218 13.2026 159.92 13.1921V13.1973Z" fill="#3DA949"/>
<path fill-rule="evenodd" clip-rule="evenodd" d="M157.821 42.4142C158.71 41.9588 159.376 41.3934 159.526 40.4406C159.595 39.9956 159.851 39.5559 160.005 39.158C159.627 39.4093 159.158 39.692 158.726 40.0218C157.858 40.6709 157.554 41.4667 157.826 42.4194L157.821 42.4142Z" fill="#3DA949"/>
<path fill-rule="evenodd" clip-rule="evenodd" d="M158.604 10.6375C159.153 12.1347 159.691 13.187 161.657 12.5378C161.188 11.517 160.533 10.8103 159.403 10.7265C158.908 10.6846 159.057 10.7684 158.604 10.6375Z" fill="#3DA949"/>
<path fill-rule="evenodd" clip-rule="evenodd" d="M155.919 43.6603C156.414 44.1995 157.043 44.3513 157.768 44.2518C158.396 44.1681 158.956 43.9377 159.568 43.6341C159.334 43.6184 159.169 43.6184 159.014 43.587C158.647 43.5189 158.274 43.4613 157.927 43.3462C157.267 43.1263 156.691 43.2467 156.127 43.5242C156.063 43.5556 156.004 43.5817 155.94 43.6184C155.94 43.6184 155.929 43.6289 155.913 43.6603H155.919Z" fill="#3DA949"/>
<path fill-rule="evenodd" clip-rule="evenodd" d="M160.309 41.6918C160.922 42.0111 161.513 42.0478 162.142 41.8122C162.898 41.5295 163.447 41.0322 163.959 40.5139C163.218 40.5924 162.483 40.6448 161.747 40.7547C161.119 40.8542 160.709 41.2521 160.304 41.697L160.309 41.6918Z" fill="#3DA949"/>
<path fill-rule="evenodd" clip-rule="evenodd" d="M157.917 42.6865C158.444 43.1262 159.02 43.2885 159.686 43.1838C160.485 43.0634 161.129 42.6865 161.742 42.2886C161.002 42.2101 160.272 42.1106 159.526 42.0687C158.892 42.0321 158.407 42.341 157.917 42.6917V42.6865Z" fill="#3DA949"/>
<path fill-rule="evenodd" clip-rule="evenodd" d="M162.232 39.9904C162.829 40.3464 163.42 40.4092 164.065 40.2051C164.838 39.959 165.408 39.4931 165.957 39.001C165.211 39.0429 164.465 39.0586 163.729 39.1319C163.101 39.1947 162.669 39.5716 162.232 39.9904Z" fill="#3DA949"/>
<path fill-rule="evenodd" clip-rule="evenodd" d="M164.092 38.6399C164.742 38.8859 165.333 38.8545 165.93 38.5404C166.649 38.1687 167.129 37.6086 167.576 37.0327C166.852 37.195 166.122 37.3416 165.413 37.5353C164.8 37.7028 164.443 38.1478 164.097 38.6399H164.092Z" fill="#3DA949"/>
<path d="M157.858 37.9803C157.858 37.9803 157.607 37.5877 151.672 39.2524C151.672 39.2524 155.252 40.0429 157.858 37.9803Z" fill="#ADCE78"/>
<path d="M149.04 38.2526C149.541 38.5405 150.058 38.7813 150.596 38.9698C153.42 37.7291 159.68 36.6611 159.786 36.6402C159.707 36.6402 155.854 36.4308 149.04 38.2526Z" fill="#ADCE78"/>
<path d="M147.293 36.9647C147.66 37.2997 148.049 37.6086 148.449 37.8861C149.275 37.5877 153.505 36.1428 158.748 35.7554C158.748 35.7554 156.787 35.0487 147.293 36.9699V36.9647Z" fill="#ADCE78"/>
<path d="M146.099 35.6978C146.344 35.9962 146.6 36.2841 146.866 36.5564C147.655 36.3365 152.817 34.9544 157.522 34.8393C157.522 34.8393 155.748 33.9179 146.099 35.7031V35.6978Z" fill="#ADCE78"/>
<path d="M156.163 34.0279C156.163 34.0279 154.032 33.1013 145.172 34.3891C145.337 34.6613 145.513 34.923 145.694 35.1796C146.312 35.033 151.24 33.8917 156.158 34.0279H156.163Z" fill="#ADCE78"/>
<path d="M154.767 33.0489C154.767 33.0489 151.96 31.9705 144.463 33.0646C144.565 33.2793 144.671 33.4887 144.778 33.6928C145.23 33.6143 150.686 32.6668 154.767 33.0437V33.0489Z" fill="#ADCE78"/>
<path d="M153.281 31.8658C153.281 31.8658 153.324 31.8658 153.345 31.8658C153.345 31.8658 153.34 31.8658 153.324 31.8554C153.126 31.7559 151.496 31.0963 143.915 31.7297C143.978 31.913 144.048 32.091 144.117 32.2689C144.495 32.2218 148.731 31.6722 153.281 31.8658Z" fill="#ADCE78"/>
<path d="M151.773 30.8764L151.416 30.2796C151.416 30.2796 145.63 30.201 143.52 30.4366C143.558 30.5832 143.6 30.735 143.638 30.8764C144.213 30.8554 148.816 30.6774 151.773 30.8764Z" fill="#ADCE78"/>
<path d="M152.882 6.51245L152.866 6.49674L152.834 6.48104L152.802 6.45486L152.685 6.39204L152.567 6.33446L152.456 6.28734L152.338 6.2507L152.221 6.22452L152.109 6.20882L152.003 6.19835L151.891 6.19311H151.779L151.667 6.19835L151.566 6.20882L151.465 6.22452L151.369 6.24546L151.267 6.27164L151.177 6.30305L151.086 6.32922L151.001 6.36063L150.921 6.40251L150.841 6.43916L150.767 6.47057L150.697 6.51245L150.633 6.54386L150.575 6.5805L150.522 6.61715L150.431 6.67474L150.362 6.72709L150.319 6.7585L150.308 6.76897V6.77944L150.319 6.78467L150.33 6.79514L150.34 6.80038H150.372L150.388 6.79514L150.415 6.78467L150.442 6.77944L150.474 6.76897L150.506 6.75326L150.543 6.72709L150.585 6.69044L150.713 6.62762L150.793 6.58574L150.873 6.5491L150.964 6.51245L151.065 6.48104L151.156 6.44963L151.267 6.41822L151.369 6.39204L151.582 6.35016L151.688 6.34493L151.742 6.33969L151.79 6.33446L151.838 6.33969H151.891L152.019 6.36063L152.077 6.37634L152.141 6.39728L152.258 6.43916L152.365 6.49151L152.424 6.51245L152.477 6.53339L152.53 6.5491L152.578 6.57003L152.626 6.5805L152.679 6.59098H152.754L152.775 6.58574L152.807 6.5805H152.834L152.855 6.57003L152.871 6.5648L152.882 6.55956L152.887 6.5491L152.892 6.54386V6.53339L152.882 6.51245Z" fill="black"/>
<path d="M152.557 6.84223L152.461 6.80559L152.365 6.76371L152.269 6.73753L152.179 6.71659L152.083 6.70089L151.992 6.69042L151.896 6.68518L151.726 6.69565L151.555 6.71659L151.475 6.7323L151.395 6.75847L151.321 6.77941L151.246 6.80559L151.177 6.82653L151.113 6.8527L151.049 6.88411L150.937 6.93646L150.847 6.98881L150.708 7.07781L150.66 7.10922V7.11969H150.671L150.676 7.13016H150.697L150.729 7.12493L150.767 7.11969L150.815 7.09875L150.847 7.07781L150.884 7.05687L150.98 7.00452L151.108 6.95217L151.177 6.92599L151.257 6.89982L151.497 6.837L151.582 6.82129L151.667 6.81082L151.747 6.80559L151.832 6.80035L151.907 6.80559L152.035 6.81606L152.088 6.83176L152.147 6.84747L152.258 6.88935L152.365 6.92599L152.418 6.9417L152.466 6.9574L152.562 6.97834H152.679L152.706 6.97311L152.727 6.96264L152.749 6.9574L152.647 6.89458L152.557 6.84223Z" fill="black"/>
<path d="M152.535 7.14065L152.455 7.07783L152.37 7.02548L152.285 6.97837L152.194 6.94172L152.109 6.91554L152.024 6.8946L151.939 6.88413H151.853L151.768 6.8789H151.688L151.603 6.88937L151.528 6.90507L151.454 6.92601L151.374 6.94695L151.305 6.97313L151.23 6.9993L151.166 7.02548L151.102 7.05689L151.044 7.0883L150.985 7.11448L150.932 7.14589L150.889 7.17206L150.809 7.22965L150.75 7.26629L150.713 7.2977L150.697 7.30817L150.745 7.33435L150.809 7.37099L150.889 7.40764L150.98 7.44428L151.086 7.48093L151.198 7.51757L151.257 7.53328L151.321 7.54375L151.385 7.55945L151.454 7.56992H151.523L151.592 7.58563H151.885L151.96 7.56992L152.04 7.55945L152.2 7.52804L152.36 7.47569L152.445 7.43905L152.525 7.4024L152.61 7.36052L152.695 7.30817L152.61 7.22441L152.525 7.15112L152.535 7.14065ZM151.784 7.00977L151.837 7.03071L151.859 7.04642L151.88 7.0726L151.891 7.09877L151.901 7.11971V7.1773L151.891 7.20347L151.88 7.22441L151.859 7.24535L151.837 7.26106L151.811 7.27676L151.784 7.28723H151.725L151.694 7.27676L151.667 7.26106L151.646 7.24535L151.614 7.20347L151.603 7.1773V7.11971L151.614 7.09877L151.646 7.04642L151.667 7.03071L151.694 7.02024L151.725 7.00977H151.784ZM151.491 6.97837L151.555 6.9679L151.694 6.94695L151.672 6.96266H151.651L151.635 6.97837L151.619 6.98883L151.598 7.00454L151.587 7.01501L151.576 7.03595L151.56 7.05166V7.0726L151.544 7.0883V7.10924L151.534 7.13018V7.193L151.544 7.20871V7.22965L151.576 7.26106L151.587 7.282L151.598 7.2977L151.619 7.30817L151.635 7.32388L151.651 7.33435L151.672 7.34482H151.694L151.715 7.35529H151.8L151.821 7.34482H151.837L151.853 7.33435L151.875 7.32388L151.891 7.30817L151.907 7.2977L151.917 7.282L151.933 7.26106V7.24535L151.955 7.22965V7.20871L151.965 7.193V7.11448L151.96 7.09353V7.07783L151.939 7.05689V7.04118L151.891 6.99407L151.875 6.9836L151.853 6.97313H151.837L151.821 6.95742H151.8L151.837 6.95219H151.907L151.981 6.9679L152.05 6.9836H152.061L152.066 6.99407V7.01501L152.082 7.03595L152.093 7.05689V7.08306L152.104 7.10401V7.12495L152.109 7.15112V7.18777L152.104 7.22441L152.093 7.25582L152.082 7.29247L152.072 7.32388L152.029 7.37623L152.013 7.4024L151.987 7.42858L151.96 7.44952L151.896 7.48093L151.859 7.4914H151.827L151.795 7.50187H151.688L151.624 7.48093L151.592 7.46522L151.566 7.44952L151.539 7.42858L151.518 7.4024L151.491 7.37623L151.459 7.32388L151.443 7.29247L151.432 7.25582V7.22441L151.422 7.18777V7.11448L151.432 7.06736L151.448 7.02548L151.459 6.9993L151.507 6.9836L151.491 6.97837ZM151.438 7.48616H151.385L151.337 7.46522L151.283 7.45475L151.187 7.42334L151.102 7.39717L151.022 7.36576L150.958 7.33958L150.862 7.29247L150.905 7.26106L151.022 7.18253L151.107 7.13018L151.203 7.08306L151.257 7.06213L151.315 7.04118H151.331V7.08306L151.326 7.11448V7.20347L151.331 7.22965V7.25582L151.363 7.33435L151.374 7.35529L151.385 7.38146L151.395 7.4024L151.411 7.42334L151.448 7.45999L151.47 7.47569L151.486 7.4914H151.448L151.438 7.48616ZM152.487 7.32911L152.418 7.36052L152.349 7.39717L152.285 7.42334L152.21 7.44428L152.072 7.48616H152.045L152.072 7.46522L152.109 7.42858L152.136 7.39193L152.157 7.35005L152.178 7.30294L152.194 7.25582V7.20871L152.2 7.15112V7.08306L152.189 7.04642V7.03071L152.2 7.03595L152.274 7.06736L152.344 7.11448L152.418 7.16683L152.487 7.22441L152.562 7.29247L152.487 7.33435V7.32911Z" fill="black"/>
<path d="M156.622 6.67472L156.553 6.62761L156.462 6.56479L156.409 6.52814L156.356 6.49673L156.286 6.46009L156.217 6.41821L156.142 6.3868L156.068 6.35015L155.983 6.31874L155.897 6.2821L155.812 6.25068L155.716 6.22451L155.615 6.19833L155.524 6.17739L155.418 6.16692L155.317 6.14598L155.21 6.14075L155.098 6.13551L154.992 6.14598L154.874 6.15646L154.763 6.17739L154.651 6.20357L154.533 6.24545L154.411 6.28733L154.299 6.33968L154.182 6.4025L154.15 6.42344L154.123 6.44438L154.113 6.45485L154.107 6.46532L154.097 6.48103V6.50197L154.118 6.51244L154.129 6.52291L154.155 6.52814L154.176 6.53338L154.208 6.53861H154.23L154.256 6.54385H154.283L154.304 6.53861L154.358 6.52814L154.406 6.51767L154.454 6.50197L154.507 6.48103L154.565 6.46009L154.619 6.43915L154.731 6.39203L154.848 6.34491L154.912 6.32398L154.97 6.31351L155.034 6.2978H155.093L155.141 6.28733H155.242L155.295 6.2978L155.402 6.30304L155.503 6.31874L155.615 6.34491L155.722 6.36586L155.823 6.4025L155.924 6.43391L156.015 6.46532L156.111 6.50197L156.19 6.53338L156.27 6.57002L156.34 6.6119L156.398 6.64331L156.441 6.67472L156.478 6.7009L156.515 6.7166L156.547 6.73231L156.569 6.73754L156.595 6.74278L156.611 6.74801H156.643L156.654 6.74278L156.67 6.73754L156.675 6.73231L156.681 6.72184V6.7166L156.67 6.70613L156.622 6.67472Z" fill="black"/>
<path d="M156.143 6.94177L156.041 6.88941L155.935 6.83183L155.807 6.77948L155.738 6.74807L155.589 6.70619L155.509 6.68525L155.429 6.66954L155.343 6.65907L155.258 6.64337L155.173 6.63813H155.088L154.992 6.64337L154.811 6.66431L154.619 6.71666L154.523 6.7533L154.331 6.84753L154.235 6.90512L154.262 6.91559L154.305 6.92606H154.422L154.518 6.90512L154.624 6.87371L154.725 6.83706L154.837 6.80042L154.896 6.77948L154.955 6.76901L155.018 6.75854L155.077 6.74807H155.232L155.322 6.75854L155.402 6.77424L155.487 6.78471L155.567 6.81089L155.652 6.82659L155.727 6.85277L155.807 6.87894L155.876 6.89988L155.94 6.92606L156.004 6.95747L156.052 6.97841L156.1 7.00458L156.137 7.03076L156.169 7.04646L156.217 7.0674L156.26 7.07788L156.286 7.08311L156.308 7.07788L156.318 7.07264L156.324 7.0674V7.06217L156.276 7.02553L156.143 6.94177Z" fill="black"/>
<path d="M156.094 7.11969L156.046 7.08828L155.993 7.05687L155.934 7.02546L155.876 6.99928L155.812 6.96787L155.753 6.9417L155.679 6.91552L155.609 6.88935L155.535 6.86841L155.46 6.8527L155.375 6.837H155.295L155.215 6.82653H155.13L154.959 6.84747L154.874 6.86841L154.789 6.89458L154.704 6.93123L154.613 6.97311L154.528 7.02546L154.448 7.08828L154.363 7.1668L154.283 7.25056L154.363 7.29768L154.448 7.3448L154.528 7.38144L154.613 7.41809L154.693 7.44426L154.853 7.48614L154.933 7.50185L155.013 7.51232L155.087 7.52279H155.386L155.46 7.51232L155.53 7.50185L155.588 7.49138L155.652 7.47567L155.721 7.4652L155.775 7.4495L155.892 7.41285L155.998 7.38144L156.084 7.3448L156.164 7.30815L156.281 7.25056L156.228 7.21392L156.094 7.11445V7.11969ZM155.29 6.96264L155.316 6.98358L155.359 7.02546L155.37 7.0464L155.38 7.07257V7.12492L155.359 7.17727L155.338 7.19821L155.316 7.21392L155.29 7.22963H155.263L155.231 7.2401H155.199L155.173 7.22963L155.146 7.21392L155.125 7.19821L155.109 7.17727L155.093 7.1511V7.12492L155.082 7.09875V7.07257L155.093 7.0464L155.125 7.00452L155.146 6.98358L155.173 6.97311H155.199L155.231 6.96264H155.29ZM155.007 6.91552L155.082 6.90505H155.151L155.205 6.89982H155.183L155.162 6.91029H155.141L155.125 6.92599H155.103L155.087 6.94693L155.045 6.98881L155.034 7.00975V7.02546L155.018 7.0464V7.06734L155.013 7.08828V7.1511L155.018 7.17727V7.19298L155.034 7.21392L155.055 7.24533L155.087 7.27674L155.103 7.28721L155.125 7.29768L155.141 7.30815H155.162L155.183 7.31862H155.284L155.311 7.30815L155.359 7.27674L155.37 7.26103L155.386 7.24533L155.396 7.22963L155.412 7.21392V7.19298L155.428 7.17727V7.1511L155.439 7.13016V7.06734L155.428 7.0464V7.02546L155.412 7.00975L155.396 6.98881L155.37 6.96264L155.359 6.94693L155.343 6.93123H155.327L155.311 6.91029H155.284L155.263 6.90505H155.253H155.348L155.418 6.92599L155.482 6.9417L155.53 6.95217L155.546 6.97834L155.567 7.0621V7.17727L155.551 7.21392L155.54 7.2401L155.508 7.30292L155.466 7.35527L155.418 7.40238L155.354 7.43379L155.29 7.45473H155.146L155.082 7.43379L155.029 7.40238L155.002 7.38144L154.975 7.35527L154.933 7.30292L154.912 7.2715L154.901 7.2401L154.89 7.21392L154.88 7.17727L154.869 7.14586V7.0621L154.88 7.04116V7.02022L154.896 6.99405V6.97311L154.912 6.94693L154.917 6.93646L154.991 6.92599L155.007 6.91552ZM154.917 7.42332L154.853 7.41285L154.784 7.39191L154.645 7.33956L154.576 7.30815L154.501 7.2715L154.432 7.23486L154.501 7.1668L154.576 7.10922L154.65 7.05687L154.725 7.00975L154.8 6.97311H154.816L154.81 6.98358V7.02022L154.8 7.05687V7.17204L154.81 7.19821L154.821 7.24533L154.842 7.29245L154.869 7.33433L154.896 7.37097L154.943 7.41809H154.922L154.917 7.42332ZM156.089 7.2558L156.036 7.28721L155.966 7.30815L155.887 7.3448L155.801 7.37097L155.7 7.39715L155.647 7.41285H155.593L155.54 7.43379H155.498L155.53 7.41809L155.567 7.38144L155.599 7.33956L155.625 7.29768L155.647 7.25056L155.663 7.20345V7.18251L155.673 7.15634V7.03069L155.668 7.00452V6.98358L155.679 6.98881L155.737 7.00975L155.791 7.03593L155.972 7.13016L156.084 7.20868L156.126 7.23486L156.084 7.26103L156.089 7.2558Z" fill="black"/>
<path d="M150.271 39.8125L150.133 40.8438C150.234 40.8019 151.624 40.8333 152.12 40.8961C152.615 40.9642 153.356 41.2259 154.496 40.9746C155.631 40.7234 156.99 40.8438 156.99 40.8438L156.808 39.7496C156.808 39.7496 153.798 41.0061 150.271 39.8072" fill="#83B7E4"/>
<path d="M152.759 43.99V44.1157C152.834 44.1262 153.324 44.1837 154.128 43.5869C154.123 43.5503 154.107 43.5137 154.091 43.477C154.107 43.5032 154.113 43.5346 154.123 43.5608V43.5712C154.89 43.2205 155.343 42.6289 155.514 42.3724C155.722 42.3567 156.078 42.3305 156.238 42.3253C155.722 43.1001 154.374 43.6812 154.15 43.7859V44.011C156.148 43.4718 157.219 42.3619 157.219 42.3619L157.091 41.5715C157.091 41.5715 155.929 41.5086 154.981 41.7337C154.033 41.9536 153.031 41.9693 152.472 41.8227C151.912 41.6762 149.978 41.6657 149.978 41.6657L149.85 42.3724C149.85 42.3724 150.809 43.4508 152.754 43.9953L152.759 43.99ZM150.58 42.3881C150.751 42.3881 151.294 42.3881 151.47 42.3986C151.651 42.6603 152.083 43.2048 152.791 43.5451C152.77 43.6131 152.759 43.6759 152.759 43.7492V43.7597C152.525 43.6498 151.097 43.1263 150.58 42.3881ZM154.938 42.4405C154.629 42.8802 154.176 43.2362 154.022 43.3514C154.027 43.3566 154.033 43.3671 154.038 43.3723C153.91 43.1838 153.697 43.0582 153.457 43.0582C153.233 43.0582 153.036 43.1629 152.914 43.32C152.733 43.1838 152.333 42.854 152.045 42.4562C153.452 42.6603 153.889 42.5975 154.938 42.4405ZM154.097 43.4718C154.081 43.4456 154.065 43.409 154.049 43.3828C154.07 43.409 154.086 43.4404 154.097 43.4718Z" fill="#83B7E4"/>
<path d="M159.35 47.4608L159.595 46.6337C156.542 46.4923 154.448 44.6234 154.155 44.3407V44.4873C154.155 44.5344 154.15 44.5763 154.139 44.6234C154.15 44.5816 154.155 44.5344 154.155 44.4873V44.4193C154.075 44.4559 153.361 44.7438 152.775 44.5501C152.775 44.5501 152.775 44.5397 152.775 44.5292C152.477 44.8119 150.601 46.4819 147.575 46.6285L147.852 47.5812C147.852 47.5812 151.028 47.0263 152.898 44.8904C152.962 44.9794 153.047 45.0579 153.148 45.1051C150.761 47.7802 148.039 48.2147 148.039 48.2147L148.268 48.9999C148.268 48.9999 150.585 48.9109 153.468 45.1784C153.542 45.1784 153.612 45.1626 153.681 45.1417C156.574 48.9057 158.908 48.9947 158.908 48.9947L159.115 48.2775C159.115 48.2775 156.132 47.6912 153.942 44.9794C153.99 44.9323 154.033 44.88 154.07 44.8171C154.07 44.8224 154.065 44.8276 154.059 44.8381C155.919 47.0682 159.361 47.4504 159.361 47.4504L159.35 47.4608ZM154.134 44.6339C154.123 44.6915 154.102 44.7491 154.075 44.7962C154.102 44.7438 154.118 44.6915 154.134 44.6339Z" fill="#83B7E4"/>
<path fill-rule="evenodd" clip-rule="evenodd" d="M153.862 20.6994L153.116 20.7779V20.7884L153.153 27.9865L153.963 28.086L153.862 20.6994Z" fill="#9E724F"/>
<path fill-rule="evenodd" clip-rule="evenodd" d="M158.961 19.5999C158.668 18.8304 158.013 18.2754 156.766 18.0765C156.142 17.9718 155.455 18.0032 154.896 18.1184C155.157 18.0137 155.397 17.9509 155.588 17.9299H155.599C155.615 17.9247 155.626 17.909 155.626 17.8933C155.626 17.8881 155.626 17.8828 155.62 17.8724C155.62 17.8724 155.61 17.8671 155.61 17.8619C155.599 17.8462 155.583 17.8357 155.572 17.82C155.487 17.7467 155.375 17.6839 155.253 17.6472C155.444 17.5949 155.626 17.574 155.796 17.574C155.823 17.574 155.844 17.574 155.865 17.574C155.993 17.574 156.116 17.5949 156.228 17.6263C156.228 17.6263 156.238 17.6263 156.249 17.6315C156.27 17.6315 156.286 17.6106 156.286 17.5897C156.286 17.5897 156.281 17.574 156.276 17.5687C156.244 17.5007 156.206 17.4378 156.153 17.375C156.158 17.3698 156.164 17.3646 156.169 17.3646C156.372 17.375 156.569 17.4221 156.75 17.5007C156.75 17.5007 156.76 17.5007 156.76 17.5111H156.766C156.792 17.5111 156.808 17.4902 156.808 17.4745V17.464C156.808 17.464 156.803 17.4535 156.803 17.4483C156.792 17.4274 156.787 17.4064 156.771 17.3855C156.718 17.2913 156.659 17.2075 156.59 17.1394C156.878 17.0086 157.144 16.9248 157.389 16.8934C157.394 16.8934 157.4 16.8934 157.405 16.8934C157.421 16.8829 157.432 16.8725 157.432 16.8515C157.432 16.841 157.432 16.8358 157.421 16.8253C157.416 16.8253 157.41 16.8149 157.405 16.8149C156.846 16.4694 156.164 16.438 155.285 16.8986C154.906 17.0923 154.539 17.375 154.256 17.663C154.23 17.6263 154.198 17.5897 154.166 17.553C154.256 17.396 154.342 17.2651 154.438 17.1709C154.438 17.1709 154.438 17.1709 154.443 17.1604C154.448 17.1499 154.448 17.1447 154.448 17.1394C154.448 17.1237 154.438 17.108 154.416 17.1028C154.416 17.1028 154.406 17.1028 154.4 17.1028C154.384 17.1028 154.374 17.1028 154.363 17.1028C154.262 17.1028 154.155 17.1237 154.049 17.1709C154.144 17.0295 154.251 16.9091 154.363 16.8044C154.379 16.7939 154.395 16.773 154.406 16.7678C154.491 16.6997 154.576 16.6421 154.672 16.595C154.672 16.595 154.677 16.595 154.683 16.5898C154.693 16.5845 154.699 16.5741 154.699 16.5584C154.699 16.5427 154.693 16.5322 154.683 16.5269C154.683 16.5269 154.672 16.5269 154.667 16.5269C154.613 16.5008 154.549 16.4798 154.48 16.4694C154.48 16.4694 154.48 16.4537 154.485 16.4537C154.624 16.349 154.779 16.2704 154.938 16.2128H154.949C154.96 16.2076 154.97 16.1971 154.97 16.1762C154.97 16.1605 154.965 16.15 154.954 16.1396C154.954 16.1396 154.944 16.1396 154.938 16.1343C154.922 16.1343 154.906 16.1238 154.896 16.1186C154.81 16.0872 154.715 16.0663 154.629 16.0558C154.741 15.8097 154.869 15.6108 155.008 15.4485C155.008 15.4485 155.013 15.4381 155.018 15.4381C155.018 15.4276 155.018 15.4224 155.018 15.4171C155.018 15.4014 155.002 15.3805 154.976 15.3805C154.976 15.3805 154.965 15.3805 154.96 15.3805C154.395 15.4799 153.926 15.8464 153.617 16.6474C153.542 16.8358 153.489 17.04 153.447 17.2389C153.425 17.2389 153.404 17.2389 153.383 17.2389C153.345 17.04 153.287 16.8358 153.212 16.6421C152.903 15.8412 152.434 15.4747 151.869 15.3752C151.864 15.3752 151.864 15.3752 151.853 15.3752C151.832 15.3752 151.816 15.3962 151.816 15.4119C151.816 15.4223 151.816 15.4224 151.816 15.4328C151.816 15.4328 151.816 15.4381 151.827 15.4433C151.965 15.6056 152.093 15.8045 152.2 16.0506C152.115 16.061 152.024 16.0767 151.933 16.1134C151.917 16.1186 151.907 16.1238 151.891 16.1291C151.88 16.1291 151.88 16.1291 151.875 16.1343C151.864 16.1448 151.859 16.1553 151.859 16.171C151.859 16.1867 151.869 16.1971 151.88 16.2076C152.045 16.2652 152.2 16.3385 152.338 16.4484C152.338 16.4484 152.338 16.4589 152.338 16.4641C152.269 16.4746 152.21 16.4955 152.152 16.5165C152.147 16.5165 152.141 16.5217 152.136 16.5217C152.125 16.5269 152.12 16.5374 152.12 16.5531C152.12 16.5636 152.131 16.5741 152.136 16.5845V16.5898C152.232 16.6369 152.322 16.6945 152.402 16.7625C152.418 16.773 152.434 16.7887 152.45 16.7992C152.562 16.8986 152.669 17.019 152.765 17.1656C152.658 17.1133 152.551 17.0923 152.45 17.0976C152.44 17.0976 152.424 17.0976 152.413 17.0976C152.413 17.0976 152.408 17.0976 152.397 17.0976C152.381 17.0976 152.37 17.1185 152.37 17.1342C152.37 17.1394 152.37 17.1447 152.37 17.1552C152.37 17.1604 152.37 17.1656 152.381 17.1656C152.482 17.2756 152.589 17.4274 152.685 17.6106C152.658 17.642 152.637 17.6734 152.61 17.7101C152.322 17.4012 151.939 17.1028 151.534 16.8934C150.655 16.4327 149.978 16.4641 149.413 16.8044C149.413 16.8044 149.408 16.8149 149.403 16.8149C149.392 16.8201 149.392 16.8306 149.392 16.841C149.392 16.862 149.403 16.8725 149.419 16.8829H149.429C149.68 16.9143 149.941 16.9929 150.234 17.129C150.165 17.197 150.101 17.2808 150.053 17.375C150.037 17.396 150.031 17.4169 150.021 17.4378C150.021 17.4378 150.015 17.4483 150.01 17.4535V17.464C150.01 17.464 150.026 17.5007 150.047 17.5007C150.047 17.5007 150.047 17.5007 150.058 17.5007C150.058 17.5007 150.069 17.5007 150.074 17.4902C150.255 17.4169 150.442 17.3698 150.649 17.3541C150.655 17.3541 150.665 17.3593 150.671 17.3646C150.617 17.4274 150.575 17.4902 150.553 17.5582C150.548 17.5635 150.548 17.5687 150.543 17.574C150.543 17.6001 150.564 17.6211 150.58 17.6211H150.591C150.591 17.6211 150.596 17.6211 150.601 17.6211C150.719 17.5897 150.841 17.574 150.969 17.5687C150.99 17.5687 151.012 17.5687 151.033 17.5687C151.209 17.5687 151.385 17.5949 151.582 17.642C151.454 17.6787 151.347 17.7415 151.262 17.8148C151.251 17.8305 151.235 17.8409 151.219 17.8566C151.219 17.8566 151.214 17.8566 151.209 17.8671C151.209 17.8776 151.209 17.8828 151.209 17.8881C151.209 17.909 151.219 17.9195 151.235 17.9247C151.241 17.9247 151.241 17.9247 151.241 17.9247H151.251C151.438 17.9456 151.683 18.0085 151.944 18.1132C151.385 17.998 150.703 17.9666 150.074 18.0713C148.827 18.2702 148.172 18.8251 147.879 19.5947C147.879 19.6052 147.874 19.6052 147.874 19.6104C147.874 19.6366 147.895 19.6575 147.911 19.6575C147.916 19.6575 147.922 19.6575 147.927 19.6575C147.932 19.6575 147.932 19.6575 147.937 19.6523C148.22 19.4952 148.55 19.3643 148.955 19.2806C148.939 19.401 148.939 19.5319 148.966 19.6627C148.966 19.6994 148.976 19.736 148.992 19.7779C148.992 19.7831 148.992 19.7884 148.992 19.7936C148.998 19.8093 149.014 19.8146 149.03 19.8146C149.04 19.8146 149.051 19.8146 149.062 19.7988C149.062 19.7988 149.062 19.7884 149.062 19.7831C149.184 19.5633 149.344 19.3643 149.547 19.1968C149.557 19.1968 149.568 19.1968 149.573 19.1968C149.573 19.3068 149.578 19.4115 149.605 19.5057C149.605 19.5057 149.605 19.5162 149.605 19.5214C149.61 19.5371 149.626 19.5423 149.637 19.5423C149.648 19.5423 149.658 19.5319 149.664 19.5319C149.664 19.5319 149.664 19.5266 149.669 19.5214C149.77 19.401 149.877 19.2858 150.01 19.1811C150.026 19.1654 150.053 19.1445 150.074 19.134C150.244 19.0031 150.447 18.888 150.681 18.8042C150.585 18.9351 150.516 19.0712 150.49 19.2073C150.49 19.2387 150.479 19.2701 150.479 19.2963V19.3172C150.479 19.3172 150.5 19.3486 150.516 19.3486C150.516 19.3486 150.532 19.3486 150.538 19.3486C150.538 19.3486 150.543 19.3486 150.548 19.3434C150.745 19.223 151.033 19.1078 151.379 19.0084C150.873 19.2439 150.346 19.5947 149.914 20.003C148.923 20.9453 148.683 21.8457 148.912 22.7148C148.912 22.72 148.912 22.7305 148.918 22.7305C148.923 22.7462 148.939 22.7514 148.955 22.7514C148.971 22.7514 148.982 22.7462 148.987 22.7305C148.987 22.7305 148.987 22.7305 148.992 22.72C149.136 22.4059 149.36 22.0813 149.674 21.7568C149.738 21.8772 149.818 21.9923 149.925 22.097C149.957 22.1284 149.989 22.1599 150.021 22.186C150.021 22.1913 150.026 22.1965 150.037 22.2017H150.047C150.079 22.2017 150.095 22.186 150.095 22.1651V22.1546C150.063 21.8824 150.079 21.5997 150.159 21.3222C150.165 21.3118 150.175 21.3065 150.181 21.3013C150.244 21.4008 150.324 21.4898 150.41 21.5631C150.41 21.5683 150.42 21.5735 150.431 21.5788H150.447C150.447 21.5788 150.479 21.5683 150.484 21.5526C150.484 21.5474 150.484 21.5421 150.484 21.5421C150.484 21.5421 150.484 21.5421 150.484 21.5369C150.495 21.3641 150.521 21.1966 150.569 21.0186C150.585 20.9924 150.591 20.961 150.601 20.9349C150.681 20.715 150.788 20.4899 150.937 20.2648C150.932 20.4428 150.964 20.605 151.022 20.7464C151.038 20.7778 151.054 20.8092 151.076 20.8406C151.076 20.8459 151.081 20.8511 151.086 20.8511C151.092 20.8616 151.102 20.8616 151.113 20.8616C151.129 20.8616 151.14 20.8563 151.15 20.8459V20.8302C151.31 20.4689 151.667 19.9873 152.163 19.5266C152.248 19.4429 152.338 19.3643 152.424 19.291C152.498 19.5005 152.605 19.6837 152.738 19.8198C152.727 19.8878 152.717 19.9611 152.717 20.0344C152.717 20.3433 152.839 20.6155 153.026 20.783V20.7935H153.782C153.979 20.6312 154.113 20.3485 154.113 20.0292C154.113 19.9559 154.107 19.8931 154.091 19.825C154.219 19.6994 154.32 19.5319 154.395 19.3434C154.459 19.401 154.523 19.4638 154.587 19.5214C155.077 19.9873 155.439 20.4637 155.594 20.8249C155.594 20.8354 155.594 20.8354 155.599 20.8406C155.61 20.8511 155.615 20.8563 155.631 20.8563C155.642 20.8563 155.652 20.8563 155.658 20.8459C155.658 20.8459 155.663 20.8459 155.668 20.8354C155.69 20.804 155.706 20.7726 155.722 20.7412C155.785 20.605 155.817 20.4375 155.812 20.2595C155.961 20.4794 156.068 20.7045 156.148 20.9296C156.158 20.9558 156.164 20.982 156.174 21.0134C156.228 21.1914 156.254 21.3589 156.265 21.5264C156.265 21.5369 156.265 21.5421 156.265 21.5526C156.27 21.5631 156.281 21.5788 156.302 21.5788C156.302 21.5788 156.318 21.5788 156.324 21.5788C156.324 21.5788 156.329 21.5788 156.334 21.5683C156.419 21.5002 156.499 21.4112 156.569 21.3065C156.574 21.3065 156.585 21.317 156.59 21.3275C156.665 21.6049 156.686 21.8824 156.654 22.1599V22.1703C156.654 22.1703 156.675 22.207 156.691 22.207C156.691 22.207 156.707 22.207 156.713 22.2017C156.718 22.2017 156.723 22.2017 156.729 22.1913C156.76 22.1651 156.798 22.1337 156.83 22.1023C156.931 21.9976 157.016 21.8824 157.075 21.762C157.389 22.0866 157.608 22.4111 157.757 22.7252C157.757 22.7252 157.757 22.7252 157.757 22.7357C157.767 22.7462 157.778 22.7566 157.789 22.7566C157.805 22.7566 157.821 22.7462 157.826 22.7305V22.72C158.055 21.8458 157.821 20.9453 156.824 20.003C156.398 19.5999 155.871 19.2492 155.365 19.0084C155.711 19.1026 155.999 19.2178 156.19 19.3434C156.196 19.3434 156.196 19.3486 156.206 19.3486C156.206 19.3486 156.217 19.3539 156.222 19.3539C156.244 19.3539 156.26 19.3382 156.265 19.3172C156.265 19.3172 156.265 19.3068 156.265 19.2963C156.265 19.2701 156.26 19.2387 156.254 19.2073C156.233 19.0712 156.164 18.9298 156.068 18.8042C156.302 18.8932 156.505 19.0031 156.675 19.134C156.697 19.1445 156.723 19.1654 156.739 19.1811C156.867 19.2858 156.979 19.401 157.075 19.5214C157.075 19.5266 157.075 19.5319 157.085 19.5371C157.096 19.5371 157.101 19.5476 157.112 19.5476C157.128 19.5476 157.139 19.5371 157.144 19.5266C157.144 19.5214 157.144 19.5109 157.149 19.5109C157.176 19.4167 157.187 19.312 157.187 19.2021C157.197 19.2021 157.203 19.2021 157.213 19.2021C157.421 19.3696 157.576 19.5685 157.704 19.7884C157.704 19.7884 157.704 19.7989 157.709 19.8093C157.714 19.8146 157.725 19.8198 157.735 19.8198C157.751 19.8198 157.767 19.8146 157.773 19.7936C157.773 19.7936 157.773 19.7936 157.773 19.7831C157.783 19.7465 157.789 19.7046 157.799 19.668C157.821 19.5371 157.821 19.4062 157.81 19.2858C158.215 19.3696 158.551 19.5005 158.828 19.6627C158.828 19.6627 158.838 19.6627 158.844 19.6627C158.865 19.6627 158.886 19.6418 158.886 19.6209C158.886 19.6209 158.881 19.6104 158.876 19.5999H158.961Z" fill="#3DA949"/>
<path d="M159.717 28.5205C159.451 28.0494 158.758 28.1174 158.161 28.3844L157.671 27.6096C157.671 27.6096 158.225 27.2955 158.598 27.5102C158.971 27.7248 159.477 27.9133 159.525 27.3898C159.579 26.8662 158.913 26.4265 157.922 26.8715C156.798 27.3845 155.21 28.4106 155.21 28.4106C155.21 28.4106 154.325 27.7143 152.109 28.0965C149.887 28.4786 149.829 28.0912 149.829 28.0912C149.829 28.0912 149.823 27.1908 149.104 27.2222C148.39 27.2484 148.566 28.2378 149.077 28.6043C149.45 28.8713 149.69 28.955 150.729 28.9289C151.555 28.9027 153.009 28.9812 153.867 29.4314L151.182 29.4052C151.182 29.4052 150.963 29.3895 151.049 29.6722C151.134 29.9549 151.773 31.3893 152.519 31.7715C152.866 31.7715 153.995 31.8081 153.995 31.8081C153.995 31.8081 154.352 31.7034 154.56 31.5935C154.906 31.4364 155.402 30.9025 155.588 30.4156C155.807 30.201 158.646 28.5676 158.827 29.0283C159.009 29.3791 159.158 29.332 159.376 29.2953C159.595 29.2587 159.904 29.0074 159.712 28.531L159.717 28.5205ZM155.886 29.5047C155.886 29.5047 155.732 28.9236 155.647 28.798L157.41 27.751C157.41 27.751 157.868 28.353 157.836 28.4315L155.892 29.4995L155.886 29.5047Z" fill="#7B573A"/>
<path d="M162.882 31.5673L162.77 31.5097C159.494 30.0282 155.567 30.4627 155.567 30.4627C155.567 30.4627 155.178 31.494 153.915 31.7924L152.876 31.7662C152.876 31.7662 153.09 31.8134 153.345 31.8709C153.324 31.8709 153.303 31.8709 153.281 31.8709C155.801 32.5044 159.163 35.6768 159.968 36.4621C160.053 36.3731 160.133 36.2841 160.213 36.1951C159.137 34.6926 154.603 31.7453 154.603 31.7453C156.91 32.2217 159.968 35.1324 160.597 35.7501C160.719 35.5983 160.842 35.4412 160.959 35.2842C159.67 33.9021 155.253 31.2584 155.253 31.2584C157.602 31.8709 160.437 34.2895 161.188 34.9544C161.284 34.8183 161.374 34.6769 161.465 34.5356C160.122 32.9441 155.588 30.7035 155.588 30.7035C158.268 31.3317 161.023 33.5043 161.731 34.0906C161.811 33.9493 161.897 33.8027 161.971 33.6613C160.98 32.7818 156.787 30.5674 156.787 30.5674C158.087 30.714 161.705 32.918 162.2 33.2268C162.248 33.1221 162.296 33.0122 162.344 32.9075C161.838 32.3316 158.513 30.7664 158.513 30.7664C160.09 30.9496 162.115 32.3212 162.488 32.5829C162.536 32.4782 162.579 32.3735 162.621 32.2636C162.142 31.8395 160.517 31.1171 160.517 31.1171C161.385 31.1904 162.349 31.7662 162.722 32.0018C162.776 31.8605 162.829 31.7139 162.877 31.5673H162.882Z" fill="#ADCE78"/>
</svg>
