<svg width="25" height="25" viewBox="0 0 25 25" fill="none" xmlns="http://www.w3.org/2000/svg">
<path d="M12.4449 0.706543C5.81792 0.706543 0.444916 6.07954 0.444916 12.7065C0.444916 14.9578 1.07726 17.0566 2.15585 18.8569L0.552338 24.7065L6.52695 23.1382C8.27427 24.1316 10.2914 24.7065 12.4449 24.7065C19.0719 24.7065 24.4449 19.3335 24.4449 12.7065C24.4449 6.07954 19.0719 0.706543 12.4449 0.706543ZM8.33749 7.10889C8.53249 7.10889 8.73285 7.1077 8.90585 7.1167C9.11985 7.1217 9.35278 7.13737 9.57578 7.63037C9.84078 8.21637 10.4178 9.68645 10.4918 9.83545C10.5658 9.98445 10.6182 10.16 10.5152 10.355C10.4172 10.555 10.3663 10.676 10.2223 10.853C10.0733 11.025 9.90999 11.2387 9.77499 11.3687C9.62599 11.5177 9.47213 11.681 9.64413 11.978C9.81613 12.275 10.4135 13.2487 11.2965 14.0347C12.4315 15.0487 13.3891 15.3603 13.6871 15.5093C13.9851 15.6583 14.1577 15.6351 14.3297 15.4351C14.5067 15.2401 15.073 14.5709 15.273 14.2729C15.468 13.9749 15.6671 14.0265 15.9371 14.1245C16.2111 14.2225 17.6723 14.9423 17.9703 15.0913C18.2683 15.2403 18.4637 15.3141 18.5387 15.4351C18.6157 15.5601 18.6157 16.1551 18.3687 16.8491C18.1217 17.5421 16.9088 18.2123 16.3648 18.2593C15.8158 18.3103 15.3035 18.506 12.7965 17.519C9.77248 16.328 7.8654 13.2308 7.7164 13.0308C7.5674 12.8358 6.50546 11.4204 6.50546 9.96045C6.50546 8.49545 7.27357 7.77798 7.54257 7.47998C7.81657 7.18198 8.13749 7.10889 8.33749 7.10889Z" fill="#A4A4A4"/>
</svg>
