<svg width="28" height="19" viewBox="0 0 28 19" fill="none" xmlns="http://www.w3.org/2000/svg">
<path d="M26.8795 3.52688C26.7266 2.98152 26.4288 2.48777 26.0177 2.09813C25.595 1.69651 25.077 1.40922 24.5125 1.26338C22.3997 0.706506 13.9352 0.706506 13.9352 0.706506C10.4065 0.666358 6.87859 0.84294 3.37148 1.23526C2.80694 1.39187 2.28986 1.68558 1.86623 2.09026C1.44998 2.49076 1.14848 2.98463 0.990978 3.52576C0.612633 5.56397 0.428807 7.63352 0.441979 9.70651C0.428479 11.7776 0.611854 13.8465 0.990978 15.8873C1.1451 16.4261 1.44548 16.9178 1.86285 17.3149C2.28023 17.712 2.79998 17.9989 3.37148 18.1508C5.51235 18.7065 13.9352 18.7065 13.9352 18.7065C17.4685 18.7467 21.0009 18.5701 24.5125 18.1778C25.077 18.0319 25.595 17.7446 26.0177 17.343C26.434 16.9459 26.7299 16.452 26.8784 15.9143C27.2666 13.8768 27.4553 11.8064 27.442 9.73238C27.4712 7.64956 27.2827 5.56939 26.8795 3.52576V3.52688ZM11.2442 13.5585V5.85563L18.2867 9.70763L11.2442 13.5585Z" fill="#A4A4A4"/>
</svg>
